%TF.GenerationSoftware,KiCad,Pcbnew,10.0.3*%
%TF.CreationDate,2026-08-08T11:25:04+02:00*%
%TF.ProjectId,door-alarm,646f6f72-2d61-46c6-9172-6d2e6b696361,2.0*%
%TF.SameCoordinates,Original*%
%TF.FileFunction,Soldermask,Top*%
%TF.FilePolarity,Negative*%
%FSLAX46Y46*%
G04 Gerber Fmt 4.6, Leading zero omitted, Abs format (unit mm)*
G04 Created by KiCad (PCBNEW 10.0.3) date 2026-08-08 11:25:04*
%MOMM*%
%LPD*%
G01*
G04 APERTURE LIST*
G04 Aperture macros list*
%AMRoundRect*
0 Rectangle with rounded corners*
0 $1 Rounding radius*
0 $2 $3 $4 $5 $6 $7 $8 $9 X,Y pos of 4 corners*
0 Add a 4 corners polygon primitive as box body*
4,1,4,$2,$3,$4,$5,$6,$7,$8,$9,$2,$3,0*
0 Add four circle primitives for the rounded corners*
1,1,$1+$1,$2,$3*
1,1,$1+$1,$4,$5*
1,1,$1+$1,$6,$7*
1,1,$1+$1,$8,$9*
0 Add four rect primitives between the rounded corners*
20,1,$1+$1,$2,$3,$4,$5,0*
20,1,$1+$1,$4,$5,$6,$7,0*
20,1,$1+$1,$6,$7,$8,$9,0*
20,1,$1+$1,$8,$9,$2,$3,0*%
G04 Aperture macros list end*
%ADD10RoundRect,0.250000X0.625000X-0.312500X0.625000X0.312500X-0.625000X0.312500X-0.625000X-0.312500X0*%
%ADD11C,1.600000*%
%ADD12R,1.800000X1.800000*%
%ADD13C,1.800000*%
%ADD14RoundRect,0.250000X-0.312500X-0.625000X0.312500X-0.625000X0.312500X0.625000X-0.312500X0.625000X0*%
%ADD15R,5.100000X5.100000*%
%ADD16C,17.800000*%
%ADD17RoundRect,0.250000X-0.550000X-0.550000X0.550000X-0.550000X0.550000X0.550000X-0.550000X0.550000X0*%
%ADD18RoundRect,0.250000X-0.550000X1.500000X-0.550000X-1.500000X0.550000X-1.500000X0.550000X1.500000X0*%
%ADD19R,2.000000X2.000000*%
%ADD20C,2.000000*%
%ADD21C,1.440000*%
%ADD22RoundRect,0.250000X0.312500X0.625000X-0.312500X0.625000X-0.312500X-0.625000X0.312500X-0.625000X0*%
G04 APERTURE END LIST*
D10*
%TO.C,R7*%
X133000000Y-78500000D03*
X133000000Y-75575000D03*
%TD*%
D11*
%TO.C,C1*%
X140225000Y-90775000D03*
X145225000Y-90775000D03*
%TD*%
D12*
%TO.C,D3*%
X159290000Y-90000000D03*
D13*
X156750000Y-90000000D03*
%TD*%
D12*
%TO.C,D2*%
X159275000Y-81250000D03*
D13*
X156735000Y-81250000D03*
%TD*%
D14*
%TO.C,R3*%
X149870000Y-81250000D03*
X152795000Y-81250000D03*
%TD*%
D15*
%TO.C,V2*%
X152800000Y-115250000D03*
X127200000Y-115250000D03*
D16*
X140000000Y-115250000D03*
%TD*%
D14*
%TO.C,R2*%
X149885000Y-72500000D03*
X152810000Y-72500000D03*
%TD*%
D17*
%TO.C,U1*%
X138440000Y-76250000D03*
D11*
X138440000Y-78790000D03*
X138440000Y-81330000D03*
X138440000Y-83870000D03*
X146060000Y-83870000D03*
X146060000Y-81330000D03*
X146060000Y-78790000D03*
X146060000Y-76250000D03*
%TD*%
D18*
%TO.C,SW1*%
X125980000Y-78350000D03*
X128010000Y-101150000D03*
X128520000Y-78350000D03*
%TD*%
D14*
%TO.C,R4*%
X149770000Y-90000000D03*
X152695000Y-90000000D03*
%TD*%
D11*
%TO.C,C2*%
X140125000Y-97175000D03*
X145125000Y-97175000D03*
%TD*%
D12*
%TO.C,D1*%
X159160000Y-72500000D03*
D13*
X156620000Y-72500000D03*
%TD*%
D15*
%TO.C,V1*%
X127450000Y-61250000D03*
X153050000Y-61250000D03*
D16*
X140250000Y-61250000D03*
%TD*%
D19*
%TO.C,BZ1*%
X154250000Y-98750000D03*
D20*
X154250000Y-103750000D03*
%TD*%
D21*
%TO.C,RV1*%
X133500000Y-90960000D03*
X133500000Y-93500000D03*
X133500000Y-96040000D03*
%TD*%
D22*
%TO.C,R6*%
X134962500Y-85000000D03*
X132037500Y-85000000D03*
%TD*%
M02*
