%TF.GenerationSoftware,KiCad,Pcbnew,10.0.3*%
%TF.CreationDate,2026-08-05T18:05:35+02:00*%
%TF.ProjectId,door-alarm,646f6f72-2d61-46c6-9172-6d2e6b696361,rev?*%
%TF.SameCoordinates,Original*%
%TF.FileFunction,Legend,Bot*%
%TF.FilePolarity,Positive*%
%FSLAX46Y46*%
G04 Gerber Fmt 4.6, Leading zero omitted, Abs format (unit mm)*
G04 Created by KiCad (PCBNEW 10.0.3) date 2026-08-05 18:05:35*
%MOMM*%
%LPD*%
G01*
G04 APERTURE LIST*
%ADD10C,0.300000*%
G04 APERTURE END LIST*
D10*
X80885912Y-83054510D02*
X79385912Y-83054510D01*
X79385912Y-83054510D02*
X79385912Y-83411653D01*
X79385912Y-83411653D02*
X79457341Y-83625939D01*
X79457341Y-83625939D02*
X79600198Y-83768796D01*
X79600198Y-83768796D02*
X79743055Y-83840225D01*
X79743055Y-83840225D02*
X80028769Y-83911653D01*
X80028769Y-83911653D02*
X80243055Y-83911653D01*
X80243055Y-83911653D02*
X80528769Y-83840225D01*
X80528769Y-83840225D02*
X80671626Y-83768796D01*
X80671626Y-83768796D02*
X80814484Y-83625939D01*
X80814484Y-83625939D02*
X80885912Y-83411653D01*
X80885912Y-83411653D02*
X80885912Y-83054510D01*
X80885912Y-84768796D02*
X80814484Y-84625939D01*
X80814484Y-84625939D02*
X80743055Y-84554510D01*
X80743055Y-84554510D02*
X80600198Y-84483082D01*
X80600198Y-84483082D02*
X80171626Y-84483082D01*
X80171626Y-84483082D02*
X80028769Y-84554510D01*
X80028769Y-84554510D02*
X79957341Y-84625939D01*
X79957341Y-84625939D02*
X79885912Y-84768796D01*
X79885912Y-84768796D02*
X79885912Y-84983082D01*
X79885912Y-84983082D02*
X79957341Y-85125939D01*
X79957341Y-85125939D02*
X80028769Y-85197368D01*
X80028769Y-85197368D02*
X80171626Y-85268796D01*
X80171626Y-85268796D02*
X80600198Y-85268796D01*
X80600198Y-85268796D02*
X80743055Y-85197368D01*
X80743055Y-85197368D02*
X80814484Y-85125939D01*
X80814484Y-85125939D02*
X80885912Y-84983082D01*
X80885912Y-84983082D02*
X80885912Y-84768796D01*
X80885912Y-86125939D02*
X80814484Y-85983082D01*
X80814484Y-85983082D02*
X80743055Y-85911653D01*
X80743055Y-85911653D02*
X80600198Y-85840225D01*
X80600198Y-85840225D02*
X80171626Y-85840225D01*
X80171626Y-85840225D02*
X80028769Y-85911653D01*
X80028769Y-85911653D02*
X79957341Y-85983082D01*
X79957341Y-85983082D02*
X79885912Y-86125939D01*
X79885912Y-86125939D02*
X79885912Y-86340225D01*
X79885912Y-86340225D02*
X79957341Y-86483082D01*
X79957341Y-86483082D02*
X80028769Y-86554511D01*
X80028769Y-86554511D02*
X80171626Y-86625939D01*
X80171626Y-86625939D02*
X80600198Y-86625939D01*
X80600198Y-86625939D02*
X80743055Y-86554511D01*
X80743055Y-86554511D02*
X80814484Y-86483082D01*
X80814484Y-86483082D02*
X80885912Y-86340225D01*
X80885912Y-86340225D02*
X80885912Y-86125939D01*
X80885912Y-87268796D02*
X79885912Y-87268796D01*
X80171626Y-87268796D02*
X80028769Y-87340225D01*
X80028769Y-87340225D02*
X79957341Y-87411654D01*
X79957341Y-87411654D02*
X79885912Y-87554511D01*
X79885912Y-87554511D02*
X79885912Y-87697368D01*
X80885912Y-89983082D02*
X80100198Y-89983082D01*
X80100198Y-89983082D02*
X79957341Y-89911653D01*
X79957341Y-89911653D02*
X79885912Y-89768796D01*
X79885912Y-89768796D02*
X79885912Y-89483082D01*
X79885912Y-89483082D02*
X79957341Y-89340224D01*
X80814484Y-89983082D02*
X80885912Y-89840224D01*
X80885912Y-89840224D02*
X80885912Y-89483082D01*
X80885912Y-89483082D02*
X80814484Y-89340224D01*
X80814484Y-89340224D02*
X80671626Y-89268796D01*
X80671626Y-89268796D02*
X80528769Y-89268796D01*
X80528769Y-89268796D02*
X80385912Y-89340224D01*
X80385912Y-89340224D02*
X80314484Y-89483082D01*
X80314484Y-89483082D02*
X80314484Y-89840224D01*
X80314484Y-89840224D02*
X80243055Y-89983082D01*
X80885912Y-90911653D02*
X80814484Y-90768796D01*
X80814484Y-90768796D02*
X80671626Y-90697367D01*
X80671626Y-90697367D02*
X79385912Y-90697367D01*
X80885912Y-92125939D02*
X80100198Y-92125939D01*
X80100198Y-92125939D02*
X79957341Y-92054510D01*
X79957341Y-92054510D02*
X79885912Y-91911653D01*
X79885912Y-91911653D02*
X79885912Y-91625939D01*
X79885912Y-91625939D02*
X79957341Y-91483081D01*
X80814484Y-92125939D02*
X80885912Y-91983081D01*
X80885912Y-91983081D02*
X80885912Y-91625939D01*
X80885912Y-91625939D02*
X80814484Y-91483081D01*
X80814484Y-91483081D02*
X80671626Y-91411653D01*
X80671626Y-91411653D02*
X80528769Y-91411653D01*
X80528769Y-91411653D02*
X80385912Y-91483081D01*
X80385912Y-91483081D02*
X80314484Y-91625939D01*
X80314484Y-91625939D02*
X80314484Y-91983081D01*
X80314484Y-91983081D02*
X80243055Y-92125939D01*
X80885912Y-92840224D02*
X79885912Y-92840224D01*
X80171626Y-92840224D02*
X80028769Y-92911653D01*
X80028769Y-92911653D02*
X79957341Y-92983082D01*
X79957341Y-92983082D02*
X79885912Y-93125939D01*
X79885912Y-93125939D02*
X79885912Y-93268796D01*
X80885912Y-93768795D02*
X79885912Y-93768795D01*
X80028769Y-93768795D02*
X79957341Y-93840224D01*
X79957341Y-93840224D02*
X79885912Y-93983081D01*
X79885912Y-93983081D02*
X79885912Y-94197367D01*
X79885912Y-94197367D02*
X79957341Y-94340224D01*
X79957341Y-94340224D02*
X80100198Y-94411653D01*
X80100198Y-94411653D02*
X80885912Y-94411653D01*
X80100198Y-94411653D02*
X79957341Y-94483081D01*
X79957341Y-94483081D02*
X79885912Y-94625938D01*
X79885912Y-94625938D02*
X79885912Y-94840224D01*
X79885912Y-94840224D02*
X79957341Y-94983081D01*
X79957341Y-94983081D02*
X80100198Y-95054510D01*
X80100198Y-95054510D02*
X80885912Y-95054510D01*
X79385912Y-96697367D02*
X80885912Y-97197367D01*
X80885912Y-97197367D02*
X79385912Y-97697367D01*
X80885912Y-98983081D02*
X80885912Y-98125938D01*
X80885912Y-98554509D02*
X79385912Y-98554509D01*
X79385912Y-98554509D02*
X79600198Y-98411652D01*
X79600198Y-98411652D02*
X79743055Y-98268795D01*
X79743055Y-98268795D02*
X79814484Y-98125938D01*
X82300828Y-82911653D02*
X83300828Y-83197368D01*
X83300828Y-83197368D02*
X82586542Y-83483082D01*
X82586542Y-83483082D02*
X83300828Y-83768796D01*
X83300828Y-83768796D02*
X82300828Y-84054510D01*
X82300828Y-84483082D02*
X83300828Y-84768797D01*
X83300828Y-84768797D02*
X82586542Y-85054511D01*
X82586542Y-85054511D02*
X83300828Y-85340225D01*
X83300828Y-85340225D02*
X82300828Y-85625939D01*
X82300828Y-86054511D02*
X83300828Y-86340226D01*
X83300828Y-86340226D02*
X82586542Y-86625940D01*
X82586542Y-86625940D02*
X83300828Y-86911654D01*
X83300828Y-86911654D02*
X82300828Y-87197368D01*
X83157971Y-87768797D02*
X83229400Y-87840226D01*
X83229400Y-87840226D02*
X83300828Y-87768797D01*
X83300828Y-87768797D02*
X83229400Y-87697369D01*
X83229400Y-87697369D02*
X83157971Y-87768797D01*
X83157971Y-87768797D02*
X83300828Y-87768797D01*
X83300828Y-88483083D02*
X82300828Y-88483083D01*
X82586542Y-88483083D02*
X82443685Y-88554512D01*
X82443685Y-88554512D02*
X82372257Y-88625941D01*
X82372257Y-88625941D02*
X82300828Y-88768798D01*
X82300828Y-88768798D02*
X82300828Y-88911655D01*
X83300828Y-89625940D02*
X83229400Y-89483083D01*
X83229400Y-89483083D02*
X83157971Y-89411654D01*
X83157971Y-89411654D02*
X83015114Y-89340226D01*
X83015114Y-89340226D02*
X82586542Y-89340226D01*
X82586542Y-89340226D02*
X82443685Y-89411654D01*
X82443685Y-89411654D02*
X82372257Y-89483083D01*
X82372257Y-89483083D02*
X82300828Y-89625940D01*
X82300828Y-89625940D02*
X82300828Y-89840226D01*
X82300828Y-89840226D02*
X82372257Y-89983083D01*
X82372257Y-89983083D02*
X82443685Y-90054512D01*
X82443685Y-90054512D02*
X82586542Y-90125940D01*
X82586542Y-90125940D02*
X83015114Y-90125940D01*
X83015114Y-90125940D02*
X83157971Y-90054512D01*
X83157971Y-90054512D02*
X83229400Y-89983083D01*
X83229400Y-89983083D02*
X83300828Y-89840226D01*
X83300828Y-89840226D02*
X83300828Y-89625940D01*
X83300828Y-90768797D02*
X82300828Y-90768797D01*
X81800828Y-90768797D02*
X81872257Y-90697369D01*
X81872257Y-90697369D02*
X81943685Y-90768797D01*
X81943685Y-90768797D02*
X81872257Y-90840226D01*
X81872257Y-90840226D02*
X81800828Y-90768797D01*
X81800828Y-90768797D02*
X81943685Y-90768797D01*
X83300828Y-91697369D02*
X83229400Y-91554512D01*
X83229400Y-91554512D02*
X83086542Y-91483083D01*
X83086542Y-91483083D02*
X81800828Y-91483083D01*
X83300828Y-92268797D02*
X81800828Y-92268797D01*
X82372257Y-92268797D02*
X82300828Y-92411655D01*
X82300828Y-92411655D02*
X82300828Y-92697369D01*
X82300828Y-92697369D02*
X82372257Y-92840226D01*
X82372257Y-92840226D02*
X82443685Y-92911655D01*
X82443685Y-92911655D02*
X82586542Y-92983083D01*
X82586542Y-92983083D02*
X83015114Y-92983083D01*
X83015114Y-92983083D02*
X83157971Y-92911655D01*
X83157971Y-92911655D02*
X83229400Y-92840226D01*
X83229400Y-92840226D02*
X83300828Y-92697369D01*
X83300828Y-92697369D02*
X83300828Y-92411655D01*
X83300828Y-92411655D02*
X83229400Y-92268797D01*
X83157971Y-93625940D02*
X83229400Y-93697369D01*
X83229400Y-93697369D02*
X83300828Y-93625940D01*
X83300828Y-93625940D02*
X83229400Y-93554512D01*
X83229400Y-93554512D02*
X83157971Y-93625940D01*
X83157971Y-93625940D02*
X83300828Y-93625940D01*
X83229400Y-94983084D02*
X83300828Y-94840226D01*
X83300828Y-94840226D02*
X83300828Y-94554512D01*
X83300828Y-94554512D02*
X83229400Y-94411655D01*
X83229400Y-94411655D02*
X83157971Y-94340226D01*
X83157971Y-94340226D02*
X83015114Y-94268798D01*
X83015114Y-94268798D02*
X82586542Y-94268798D01*
X82586542Y-94268798D02*
X82443685Y-94340226D01*
X82443685Y-94340226D02*
X82372257Y-94411655D01*
X82372257Y-94411655D02*
X82300828Y-94554512D01*
X82300828Y-94554512D02*
X82300828Y-94840226D01*
X82300828Y-94840226D02*
X82372257Y-94983084D01*
X83300828Y-95840226D02*
X83229400Y-95697369D01*
X83229400Y-95697369D02*
X83157971Y-95625940D01*
X83157971Y-95625940D02*
X83015114Y-95554512D01*
X83015114Y-95554512D02*
X82586542Y-95554512D01*
X82586542Y-95554512D02*
X82443685Y-95625940D01*
X82443685Y-95625940D02*
X82372257Y-95697369D01*
X82372257Y-95697369D02*
X82300828Y-95840226D01*
X82300828Y-95840226D02*
X82300828Y-96054512D01*
X82300828Y-96054512D02*
X82372257Y-96197369D01*
X82372257Y-96197369D02*
X82443685Y-96268798D01*
X82443685Y-96268798D02*
X82586542Y-96340226D01*
X82586542Y-96340226D02*
X83015114Y-96340226D01*
X83015114Y-96340226D02*
X83157971Y-96268798D01*
X83157971Y-96268798D02*
X83229400Y-96197369D01*
X83229400Y-96197369D02*
X83300828Y-96054512D01*
X83300828Y-96054512D02*
X83300828Y-95840226D01*
X83300828Y-96983083D02*
X82300828Y-96983083D01*
X82443685Y-96983083D02*
X82372257Y-97054512D01*
X82372257Y-97054512D02*
X82300828Y-97197369D01*
X82300828Y-97197369D02*
X82300828Y-97411655D01*
X82300828Y-97411655D02*
X82372257Y-97554512D01*
X82372257Y-97554512D02*
X82515114Y-97625941D01*
X82515114Y-97625941D02*
X83300828Y-97625941D01*
X82515114Y-97625941D02*
X82372257Y-97697369D01*
X82372257Y-97697369D02*
X82300828Y-97840226D01*
X82300828Y-97840226D02*
X82300828Y-98054512D01*
X82300828Y-98054512D02*
X82372257Y-98197369D01*
X82372257Y-98197369D02*
X82515114Y-98268798D01*
X82515114Y-98268798D02*
X83300828Y-98268798D01*
M02*
