%TF.GenerationSoftware,KiCad,Pcbnew,10.0.3*%
%TF.CreationDate,2026-08-08T11:25:04+02:00*%
%TF.ProjectId,door-alarm,646f6f72-2d61-46c6-9172-6d2e6b696361,2.0*%
%TF.SameCoordinates,Original*%
%TF.FileFunction,Copper,L2,Bot*%
%TF.FilePolarity,Positive*%
%FSLAX46Y46*%
G04 Gerber Fmt 4.6, Leading zero omitted, Abs format (unit mm)*
G04 Created by KiCad (PCBNEW 10.0.3) date 2026-08-08 11:25:04*
%MOMM*%
%LPD*%
G01*
G04 APERTURE LIST*
G04 Aperture macros list*
%AMRoundRect*
0 Rectangle with rounded corners*
0 $1 Rounding radius*
0 $2 $3 $4 $5 $6 $7 $8 $9 X,Y pos of 4 corners*
0 Add a 4 corners polygon primitive as box body*
4,1,4,$2,$3,$4,$5,$6,$7,$8,$9,$2,$3,0*
0 Add four circle primitives for the rounded corners*
1,1,$1+$1,$2,$3*
1,1,$1+$1,$4,$5*
1,1,$1+$1,$6,$7*
1,1,$1+$1,$8,$9*
0 Add four rect primitives between the rounded corners*
20,1,$1+$1,$2,$3,$4,$5,0*
20,1,$1+$1,$4,$5,$6,$7,0*
20,1,$1+$1,$6,$7,$8,$9,0*
20,1,$1+$1,$8,$9,$2,$3,0*%
G04 Aperture macros list end*
%TA.AperFunction,ComponentPad*%
%ADD10C,1.600000*%
%TD*%
%TA.AperFunction,ComponentPad*%
%ADD11R,1.800000X1.800000*%
%TD*%
%TA.AperFunction,ComponentPad*%
%ADD12C,1.800000*%
%TD*%
%TA.AperFunction,ComponentPad*%
%ADD13RoundRect,0.250000X-0.550000X-0.550000X0.550000X-0.550000X0.550000X0.550000X-0.550000X0.550000X0*%
%TD*%
%TA.AperFunction,ComponentPad*%
%ADD14R,2.000000X2.000000*%
%TD*%
%TA.AperFunction,ComponentPad*%
%ADD15C,2.000000*%
%TD*%
%TA.AperFunction,ComponentPad*%
%ADD16C,1.440000*%
%TD*%
%TA.AperFunction,Conductor*%
%ADD17C,0.200000*%
%TD*%
G04 APERTURE END LIST*
D10*
%TO.P,C1,1*%
%TO.N,GND*%
X140225000Y-90775000D03*
%TO.P,C1,2*%
%TO.N,Net-(U1-CONT)*%
X145225000Y-90775000D03*
%TD*%
D11*
%TO.P,D3,1,K_1*%
%TO.N,GND*%
X159290000Y-90000000D03*
D12*
%TO.P,D3,2,A_2*%
%TO.N,Net-(D3-A)*%
X156750000Y-90000000D03*
%TD*%
D11*
%TO.P,D2,1,K_1*%
%TO.N,GND*%
X159275000Y-81250000D03*
D12*
%TO.P,D2,2,A_2*%
%TO.N,Net-(D2-A)*%
X156735000Y-81250000D03*
%TD*%
D13*
%TO.P,U1,1,GND_1*%
%TO.N,GND*%
X138440000Y-76250000D03*
D10*
%TO.P,U1,2,TRIG_2*%
%TO.N,Net-(U1-TRIG)*%
X138440000Y-78790000D03*
%TO.P,U1,3,OUT_3*%
%TO.N,Net-(BZ1-+)*%
X138440000Y-81330000D03*
%TO.P,U1,4,~{RST}_4*%
%TO.N,Net-(U1-VCC)*%
X138440000Y-83870000D03*
%TO.P,U1,5,CONT_5*%
%TO.N,Net-(U1-CONT)*%
X146060000Y-83870000D03*
%TO.P,U1,6,THRES_6*%
%TO.N,Net-(U1-DISCH)*%
X146060000Y-81330000D03*
%TO.P,U1,7,DISCH_7*%
X146060000Y-78790000D03*
%TO.P,U1,8,VCC_8*%
%TO.N,Net-(U1-VCC)*%
X146060000Y-76250000D03*
%TD*%
%TO.P,C2,1*%
%TO.N,Net-(U1-DISCH)*%
X140125000Y-97175000D03*
%TO.P,C2,2*%
%TO.N,GND*%
X145125000Y-97175000D03*
%TD*%
D11*
%TO.P,D1,1,K_1*%
%TO.N,GND*%
X159160000Y-72500000D03*
D12*
%TO.P,D1,2,A_2*%
%TO.N,Net-(D1-A)*%
X156620000Y-72500000D03*
%TD*%
D14*
%TO.P,BZ1,1,+_1*%
%TO.N,Net-(BZ1-+)*%
X154250000Y-98750000D03*
D15*
%TO.P,BZ1,2,-_2*%
%TO.N,GND*%
X154250000Y-103750000D03*
%TD*%
D16*
%TO.P,RV1,1,1_1*%
%TO.N,Net-(R6-Pad2)*%
X133500000Y-90960000D03*
%TO.P,RV1,2,2_2*%
%TO.N,Net-(U1-DISCH)*%
X133500000Y-93500000D03*
%TO.P,RV1,3,3_3*%
X133500000Y-96040000D03*
%TD*%
%TO.N,GND*%
D17*
X136725000Y-77965000D02*
X138440000Y-76250000D01*
X136725000Y-87275000D02*
X136725000Y-77965000D01*
X140225000Y-90775000D02*
X136725000Y-87275000D01*
%TO.N,Net-(U1-CONT)*%
X145225000Y-84705000D02*
X146060000Y-83870000D01*
X145225000Y-90775000D02*
X145225000Y-84705000D01*
%TO.N,Net-(U1-DISCH)*%
X146060000Y-81330000D02*
X142575000Y-84815000D01*
X142575000Y-94725000D02*
X140125000Y-97175000D01*
X142575000Y-84815000D02*
X142575000Y-94725000D01*
X146060000Y-78790000D02*
X146060000Y-81330000D01*
%TO.N,Net-(U1-VCC)*%
X138440000Y-83870000D02*
X146060000Y-76250000D01*
%TD*%
M02*
