%TF.GenerationSoftware,KiCad,Pcbnew,10.0.3*%
%TF.CreationDate,2026-08-08T11:25:04+02:00*%
%TF.ProjectId,door-alarm,646f6f72-2d61-46c6-9172-6d2e6b696361,2.0*%
%TF.SameCoordinates,Original*%
%TF.FileFunction,Legend,Bot*%
%TF.FilePolarity,Positive*%
%FSLAX46Y46*%
G04 Gerber Fmt 4.6, Leading zero omitted, Abs format (unit mm)*
G04 Created by KiCad (PCBNEW 10.0.3) date 2026-08-08 11:25:04*
%MOMM*%
%LPD*%
G01*
G04 APERTURE LIST*
%ADD10C,0.300000*%
G04 APERTURE END LIST*
D10*
X160610912Y-108429510D02*
X159110912Y-108429510D01*
X159110912Y-108429510D02*
X159110912Y-108786653D01*
X159110912Y-108786653D02*
X159182341Y-109000939D01*
X159182341Y-109000939D02*
X159325198Y-109143796D01*
X159325198Y-109143796D02*
X159468055Y-109215225D01*
X159468055Y-109215225D02*
X159753769Y-109286653D01*
X159753769Y-109286653D02*
X159968055Y-109286653D01*
X159968055Y-109286653D02*
X160253769Y-109215225D01*
X160253769Y-109215225D02*
X160396626Y-109143796D01*
X160396626Y-109143796D02*
X160539484Y-109000939D01*
X160539484Y-109000939D02*
X160610912Y-108786653D01*
X160610912Y-108786653D02*
X160610912Y-108429510D01*
X160610912Y-110143796D02*
X160539484Y-110000939D01*
X160539484Y-110000939D02*
X160468055Y-109929510D01*
X160468055Y-109929510D02*
X160325198Y-109858082D01*
X160325198Y-109858082D02*
X159896626Y-109858082D01*
X159896626Y-109858082D02*
X159753769Y-109929510D01*
X159753769Y-109929510D02*
X159682341Y-110000939D01*
X159682341Y-110000939D02*
X159610912Y-110143796D01*
X159610912Y-110143796D02*
X159610912Y-110358082D01*
X159610912Y-110358082D02*
X159682341Y-110500939D01*
X159682341Y-110500939D02*
X159753769Y-110572368D01*
X159753769Y-110572368D02*
X159896626Y-110643796D01*
X159896626Y-110643796D02*
X160325198Y-110643796D01*
X160325198Y-110643796D02*
X160468055Y-110572368D01*
X160468055Y-110572368D02*
X160539484Y-110500939D01*
X160539484Y-110500939D02*
X160610912Y-110358082D01*
X160610912Y-110358082D02*
X160610912Y-110143796D01*
X160610912Y-111500939D02*
X160539484Y-111358082D01*
X160539484Y-111358082D02*
X160468055Y-111286653D01*
X160468055Y-111286653D02*
X160325198Y-111215225D01*
X160325198Y-111215225D02*
X159896626Y-111215225D01*
X159896626Y-111215225D02*
X159753769Y-111286653D01*
X159753769Y-111286653D02*
X159682341Y-111358082D01*
X159682341Y-111358082D02*
X159610912Y-111500939D01*
X159610912Y-111500939D02*
X159610912Y-111715225D01*
X159610912Y-111715225D02*
X159682341Y-111858082D01*
X159682341Y-111858082D02*
X159753769Y-111929511D01*
X159753769Y-111929511D02*
X159896626Y-112000939D01*
X159896626Y-112000939D02*
X160325198Y-112000939D01*
X160325198Y-112000939D02*
X160468055Y-111929511D01*
X160468055Y-111929511D02*
X160539484Y-111858082D01*
X160539484Y-111858082D02*
X160610912Y-111715225D01*
X160610912Y-111715225D02*
X160610912Y-111500939D01*
X160610912Y-112643796D02*
X159610912Y-112643796D01*
X159896626Y-112643796D02*
X159753769Y-112715225D01*
X159753769Y-112715225D02*
X159682341Y-112786654D01*
X159682341Y-112786654D02*
X159610912Y-112929511D01*
X159610912Y-112929511D02*
X159610912Y-113072368D01*
X160610912Y-115358082D02*
X159825198Y-115358082D01*
X159825198Y-115358082D02*
X159682341Y-115286653D01*
X159682341Y-115286653D02*
X159610912Y-115143796D01*
X159610912Y-115143796D02*
X159610912Y-114858082D01*
X159610912Y-114858082D02*
X159682341Y-114715224D01*
X160539484Y-115358082D02*
X160610912Y-115215224D01*
X160610912Y-115215224D02*
X160610912Y-114858082D01*
X160610912Y-114858082D02*
X160539484Y-114715224D01*
X160539484Y-114715224D02*
X160396626Y-114643796D01*
X160396626Y-114643796D02*
X160253769Y-114643796D01*
X160253769Y-114643796D02*
X160110912Y-114715224D01*
X160110912Y-114715224D02*
X160039484Y-114858082D01*
X160039484Y-114858082D02*
X160039484Y-115215224D01*
X160039484Y-115215224D02*
X159968055Y-115358082D01*
X160610912Y-116286653D02*
X160539484Y-116143796D01*
X160539484Y-116143796D02*
X160396626Y-116072367D01*
X160396626Y-116072367D02*
X159110912Y-116072367D01*
X160610912Y-117500939D02*
X159825198Y-117500939D01*
X159825198Y-117500939D02*
X159682341Y-117429510D01*
X159682341Y-117429510D02*
X159610912Y-117286653D01*
X159610912Y-117286653D02*
X159610912Y-117000939D01*
X159610912Y-117000939D02*
X159682341Y-116858081D01*
X160539484Y-117500939D02*
X160610912Y-117358081D01*
X160610912Y-117358081D02*
X160610912Y-117000939D01*
X160610912Y-117000939D02*
X160539484Y-116858081D01*
X160539484Y-116858081D02*
X160396626Y-116786653D01*
X160396626Y-116786653D02*
X160253769Y-116786653D01*
X160253769Y-116786653D02*
X160110912Y-116858081D01*
X160110912Y-116858081D02*
X160039484Y-117000939D01*
X160039484Y-117000939D02*
X160039484Y-117358081D01*
X160039484Y-117358081D02*
X159968055Y-117500939D01*
X160610912Y-118215224D02*
X159610912Y-118215224D01*
X159896626Y-118215224D02*
X159753769Y-118286653D01*
X159753769Y-118286653D02*
X159682341Y-118358082D01*
X159682341Y-118358082D02*
X159610912Y-118500939D01*
X159610912Y-118500939D02*
X159610912Y-118643796D01*
X160610912Y-119143795D02*
X159610912Y-119143795D01*
X159753769Y-119143795D02*
X159682341Y-119215224D01*
X159682341Y-119215224D02*
X159610912Y-119358081D01*
X159610912Y-119358081D02*
X159610912Y-119572367D01*
X159610912Y-119572367D02*
X159682341Y-119715224D01*
X159682341Y-119715224D02*
X159825198Y-119786653D01*
X159825198Y-119786653D02*
X160610912Y-119786653D01*
X159825198Y-119786653D02*
X159682341Y-119858081D01*
X159682341Y-119858081D02*
X159610912Y-120000938D01*
X159610912Y-120000938D02*
X159610912Y-120215224D01*
X159610912Y-120215224D02*
X159682341Y-120358081D01*
X159682341Y-120358081D02*
X159825198Y-120429510D01*
X159825198Y-120429510D02*
X160610912Y-120429510D01*
X159610912Y-122143795D02*
X160610912Y-122500938D01*
X160610912Y-122500938D02*
X159610912Y-122858081D01*
X159253769Y-123358081D02*
X159182341Y-123429509D01*
X159182341Y-123429509D02*
X159110912Y-123572367D01*
X159110912Y-123572367D02*
X159110912Y-123929509D01*
X159110912Y-123929509D02*
X159182341Y-124072367D01*
X159182341Y-124072367D02*
X159253769Y-124143795D01*
X159253769Y-124143795D02*
X159396626Y-124215224D01*
X159396626Y-124215224D02*
X159539484Y-124215224D01*
X159539484Y-124215224D02*
X159753769Y-124143795D01*
X159753769Y-124143795D02*
X160610912Y-123286652D01*
X160610912Y-123286652D02*
X160610912Y-124215224D01*
X160468055Y-124858080D02*
X160539484Y-124929509D01*
X160539484Y-124929509D02*
X160610912Y-124858080D01*
X160610912Y-124858080D02*
X160539484Y-124786652D01*
X160539484Y-124786652D02*
X160468055Y-124858080D01*
X160468055Y-124858080D02*
X160610912Y-124858080D01*
X159110912Y-125858081D02*
X159110912Y-126000938D01*
X159110912Y-126000938D02*
X159182341Y-126143795D01*
X159182341Y-126143795D02*
X159253769Y-126215224D01*
X159253769Y-126215224D02*
X159396626Y-126286652D01*
X159396626Y-126286652D02*
X159682341Y-126358081D01*
X159682341Y-126358081D02*
X160039484Y-126358081D01*
X160039484Y-126358081D02*
X160325198Y-126286652D01*
X160325198Y-126286652D02*
X160468055Y-126215224D01*
X160468055Y-126215224D02*
X160539484Y-126143795D01*
X160539484Y-126143795D02*
X160610912Y-126000938D01*
X160610912Y-126000938D02*
X160610912Y-125858081D01*
X160610912Y-125858081D02*
X160539484Y-125715224D01*
X160539484Y-125715224D02*
X160468055Y-125643795D01*
X160468055Y-125643795D02*
X160325198Y-125572366D01*
X160325198Y-125572366D02*
X160039484Y-125500938D01*
X160039484Y-125500938D02*
X159682341Y-125500938D01*
X159682341Y-125500938D02*
X159396626Y-125572366D01*
X159396626Y-125572366D02*
X159253769Y-125643795D01*
X159253769Y-125643795D02*
X159182341Y-125715224D01*
X159182341Y-125715224D02*
X159110912Y-125858081D01*
X162025828Y-108286653D02*
X163025828Y-108572368D01*
X163025828Y-108572368D02*
X162311542Y-108858082D01*
X162311542Y-108858082D02*
X163025828Y-109143796D01*
X163025828Y-109143796D02*
X162025828Y-109429510D01*
X162025828Y-109858082D02*
X163025828Y-110143797D01*
X163025828Y-110143797D02*
X162311542Y-110429511D01*
X162311542Y-110429511D02*
X163025828Y-110715225D01*
X163025828Y-110715225D02*
X162025828Y-111000939D01*
X162025828Y-111429511D02*
X163025828Y-111715226D01*
X163025828Y-111715226D02*
X162311542Y-112000940D01*
X162311542Y-112000940D02*
X163025828Y-112286654D01*
X163025828Y-112286654D02*
X162025828Y-112572368D01*
X162882971Y-113143797D02*
X162954400Y-113215226D01*
X162954400Y-113215226D02*
X163025828Y-113143797D01*
X163025828Y-113143797D02*
X162954400Y-113072369D01*
X162954400Y-113072369D02*
X162882971Y-113143797D01*
X162882971Y-113143797D02*
X163025828Y-113143797D01*
X163025828Y-113858083D02*
X162025828Y-113858083D01*
X162311542Y-113858083D02*
X162168685Y-113929512D01*
X162168685Y-113929512D02*
X162097257Y-114000941D01*
X162097257Y-114000941D02*
X162025828Y-114143798D01*
X162025828Y-114143798D02*
X162025828Y-114286655D01*
X163025828Y-115000940D02*
X162954400Y-114858083D01*
X162954400Y-114858083D02*
X162882971Y-114786654D01*
X162882971Y-114786654D02*
X162740114Y-114715226D01*
X162740114Y-114715226D02*
X162311542Y-114715226D01*
X162311542Y-114715226D02*
X162168685Y-114786654D01*
X162168685Y-114786654D02*
X162097257Y-114858083D01*
X162097257Y-114858083D02*
X162025828Y-115000940D01*
X162025828Y-115000940D02*
X162025828Y-115215226D01*
X162025828Y-115215226D02*
X162097257Y-115358083D01*
X162097257Y-115358083D02*
X162168685Y-115429512D01*
X162168685Y-115429512D02*
X162311542Y-115500940D01*
X162311542Y-115500940D02*
X162740114Y-115500940D01*
X162740114Y-115500940D02*
X162882971Y-115429512D01*
X162882971Y-115429512D02*
X162954400Y-115358083D01*
X162954400Y-115358083D02*
X163025828Y-115215226D01*
X163025828Y-115215226D02*
X163025828Y-115000940D01*
X163025828Y-116143797D02*
X162025828Y-116143797D01*
X161525828Y-116143797D02*
X161597257Y-116072369D01*
X161597257Y-116072369D02*
X161668685Y-116143797D01*
X161668685Y-116143797D02*
X161597257Y-116215226D01*
X161597257Y-116215226D02*
X161525828Y-116143797D01*
X161525828Y-116143797D02*
X161668685Y-116143797D01*
X163025828Y-117072369D02*
X162954400Y-116929512D01*
X162954400Y-116929512D02*
X162811542Y-116858083D01*
X162811542Y-116858083D02*
X161525828Y-116858083D01*
X163025828Y-117643797D02*
X161525828Y-117643797D01*
X162097257Y-117643797D02*
X162025828Y-117786655D01*
X162025828Y-117786655D02*
X162025828Y-118072369D01*
X162025828Y-118072369D02*
X162097257Y-118215226D01*
X162097257Y-118215226D02*
X162168685Y-118286655D01*
X162168685Y-118286655D02*
X162311542Y-118358083D01*
X162311542Y-118358083D02*
X162740114Y-118358083D01*
X162740114Y-118358083D02*
X162882971Y-118286655D01*
X162882971Y-118286655D02*
X162954400Y-118215226D01*
X162954400Y-118215226D02*
X163025828Y-118072369D01*
X163025828Y-118072369D02*
X163025828Y-117786655D01*
X163025828Y-117786655D02*
X162954400Y-117643797D01*
X162882971Y-119000940D02*
X162954400Y-119072369D01*
X162954400Y-119072369D02*
X163025828Y-119000940D01*
X163025828Y-119000940D02*
X162954400Y-118929512D01*
X162954400Y-118929512D02*
X162882971Y-119000940D01*
X162882971Y-119000940D02*
X163025828Y-119000940D01*
X162954400Y-120358084D02*
X163025828Y-120215226D01*
X163025828Y-120215226D02*
X163025828Y-119929512D01*
X163025828Y-119929512D02*
X162954400Y-119786655D01*
X162954400Y-119786655D02*
X162882971Y-119715226D01*
X162882971Y-119715226D02*
X162740114Y-119643798D01*
X162740114Y-119643798D02*
X162311542Y-119643798D01*
X162311542Y-119643798D02*
X162168685Y-119715226D01*
X162168685Y-119715226D02*
X162097257Y-119786655D01*
X162097257Y-119786655D02*
X162025828Y-119929512D01*
X162025828Y-119929512D02*
X162025828Y-120215226D01*
X162025828Y-120215226D02*
X162097257Y-120358084D01*
X163025828Y-121215226D02*
X162954400Y-121072369D01*
X162954400Y-121072369D02*
X162882971Y-121000940D01*
X162882971Y-121000940D02*
X162740114Y-120929512D01*
X162740114Y-120929512D02*
X162311542Y-120929512D01*
X162311542Y-120929512D02*
X162168685Y-121000940D01*
X162168685Y-121000940D02*
X162097257Y-121072369D01*
X162097257Y-121072369D02*
X162025828Y-121215226D01*
X162025828Y-121215226D02*
X162025828Y-121429512D01*
X162025828Y-121429512D02*
X162097257Y-121572369D01*
X162097257Y-121572369D02*
X162168685Y-121643798D01*
X162168685Y-121643798D02*
X162311542Y-121715226D01*
X162311542Y-121715226D02*
X162740114Y-121715226D01*
X162740114Y-121715226D02*
X162882971Y-121643798D01*
X162882971Y-121643798D02*
X162954400Y-121572369D01*
X162954400Y-121572369D02*
X163025828Y-121429512D01*
X163025828Y-121429512D02*
X163025828Y-121215226D01*
X163025828Y-122358083D02*
X162025828Y-122358083D01*
X162168685Y-122358083D02*
X162097257Y-122429512D01*
X162097257Y-122429512D02*
X162025828Y-122572369D01*
X162025828Y-122572369D02*
X162025828Y-122786655D01*
X162025828Y-122786655D02*
X162097257Y-122929512D01*
X162097257Y-122929512D02*
X162240114Y-123000941D01*
X162240114Y-123000941D02*
X163025828Y-123000941D01*
X162240114Y-123000941D02*
X162097257Y-123072369D01*
X162097257Y-123072369D02*
X162025828Y-123215226D01*
X162025828Y-123215226D02*
X162025828Y-123429512D01*
X162025828Y-123429512D02*
X162097257Y-123572369D01*
X162097257Y-123572369D02*
X162240114Y-123643798D01*
X162240114Y-123643798D02*
X163025828Y-123643798D01*
M02*
