%TF.GenerationSoftware,KiCad,Pcbnew,10.0.3*%
%TF.CreationDate,2026-08-05T18:05:35+02:00*%
%TF.ProjectId,door-alarm,646f6f72-2d61-46c6-9172-6d2e6b696361,rev?*%
%TF.SameCoordinates,Original*%
%TF.FileFunction,Copper,L2,Bot*%
%TF.FilePolarity,Positive*%
%FSLAX46Y46*%
G04 Gerber Fmt 4.6, Leading zero omitted, Abs format (unit mm)*
G04 Created by KiCad (PCBNEW 10.0.3) date 2026-08-05 18:05:35*
%MOMM*%
%LPD*%
G01*
G04 APERTURE LIST*
G04 Aperture macros list*
%AMRoundRect*
0 Rectangle with rounded corners*
0 $1 Rounding radius*
0 $2 $3 $4 $5 $6 $7 $8 $9 X,Y pos of 4 corners*
0 Add a 4 corners polygon primitive as box body*
4,1,4,$2,$3,$4,$5,$6,$7,$8,$9,$2,$3,0*
0 Add four circle primitives for the rounded corners*
1,1,$1+$1,$2,$3*
1,1,$1+$1,$4,$5*
1,1,$1+$1,$6,$7*
1,1,$1+$1,$8,$9*
0 Add four rect primitives between the rounded corners*
20,1,$1+$1,$2,$3,$4,$5,0*
20,1,$1+$1,$4,$5,$6,$7,0*
20,1,$1+$1,$6,$7,$8,$9,0*
20,1,$1+$1,$8,$9,$2,$3,0*%
G04 Aperture macros list end*
%TA.AperFunction,ComponentPad*%
%ADD10R,1.800000X1.800000*%
%TD*%
%TA.AperFunction,ComponentPad*%
%ADD11C,1.800000*%
%TD*%
%TA.AperFunction,ComponentPad*%
%ADD12C,1.600000*%
%TD*%
%TA.AperFunction,ComponentPad*%
%ADD13RoundRect,0.250000X-0.550000X-0.550000X0.550000X-0.550000X0.550000X0.550000X-0.550000X0.550000X0*%
%TD*%
%TA.AperFunction,Conductor*%
%ADD14C,0.200000*%
%TD*%
G04 APERTURE END LIST*
D10*
%TO.P,D3,1,K_1*%
%TO.N,GND*%
X108540000Y-54250000D03*
D11*
%TO.P,D3,2,A_2*%
%TO.N,Net-(D3-A)*%
X106000000Y-54250000D03*
%TD*%
D12*
%TO.P,C1,1*%
%TO.N,GND*%
X91000000Y-50500000D03*
%TO.P,C1,2*%
%TO.N,Net-(U1-CONT)*%
X96000000Y-50500000D03*
%TD*%
D10*
%TO.P,D2,1,K_1*%
%TO.N,GND*%
X108540000Y-46000000D03*
D11*
%TO.P,D2,2,A_2*%
%TO.N,Net-(D2-A)*%
X106000000Y-46000000D03*
%TD*%
D13*
%TO.P,U1,1,GND_1*%
%TO.N,GND*%
X89195000Y-38192500D03*
D12*
%TO.P,U1,2,TRIG_2*%
%TO.N,Net-(U1-TRIG)*%
X89195000Y-40732500D03*
%TO.P,U1,3,OUT_3*%
%TO.N,Net-(U1-OUT)*%
X89195000Y-43272500D03*
%TO.P,U1,4,~{RST}_4*%
%TO.N,Net-(U1-VCC)*%
X89195000Y-45812500D03*
%TO.P,U1,5,CONT_5*%
%TO.N,Net-(U1-CONT)*%
X96815000Y-45812500D03*
%TO.P,U1,6,THRES_6*%
%TO.N,Net-(U1-DISCH)*%
X96815000Y-43272500D03*
%TO.P,U1,7,DISCH_7*%
X96815000Y-40732500D03*
%TO.P,U1,8,VCC_8*%
%TO.N,Net-(U1-VCC)*%
X96815000Y-38192500D03*
%TD*%
D10*
%TO.P,D1,1,K_1*%
%TO.N,GND*%
X108525000Y-37750000D03*
D11*
%TO.P,D1,2,A_2*%
%TO.N,Net-(D1-A)*%
X105985000Y-37750000D03*
%TD*%
D12*
%TO.P,C2,1*%
%TO.N,Net-(U1-DISCH)*%
X91000000Y-54000000D03*
%TO.P,C2,2*%
%TO.N,GND*%
X96000000Y-54000000D03*
%TD*%
%TO.N,GND*%
D14*
X92500000Y-41497500D02*
X89195000Y-38192500D01*
X90500000Y-50502500D02*
X92500000Y-48502500D01*
X92500000Y-48502500D02*
X92500000Y-41497500D01*
%TO.N,Net-(U1-VCC)*%
X87250000Y-36750000D02*
X94250000Y-36750000D01*
X95057500Y-38192500D02*
X96815000Y-38192500D01*
X87250000Y-43867500D02*
X87250000Y-36750000D01*
X95000000Y-38250000D02*
X95057500Y-38192500D01*
X89195000Y-45812500D02*
X87250000Y-43867500D01*
X94250000Y-36750000D02*
X94250000Y-37500000D01*
X94250000Y-37500000D02*
X95000000Y-38250000D01*
%TO.N,Net-(U1-DISCH)*%
X94500000Y-43750000D02*
X94977500Y-43272500D01*
X94977500Y-43272500D02*
X96815000Y-43272500D01*
X94500000Y-50500000D02*
X94500000Y-43750000D01*
X96815000Y-40732500D02*
X96815000Y-43272500D01*
X91000000Y-54000000D02*
X94500000Y-50500000D01*
%TO.N,Net-(U1-CONT)*%
X96815000Y-48437500D02*
X96815000Y-45812500D01*
X95500000Y-49752500D02*
X96815000Y-48437500D01*
X95500000Y-50502500D02*
X95500000Y-49752500D01*
%TD*%
M02*
