M48
; DRILL file KiCad 10.0.3 date 2026-08-08T00:28:52
; FORMAT={-:-/ absolute / metric / decimal}
; #@! TF.CreationDate,2026-08-08T00:28:52+02:00
; #@! TF.GenerationSoftware,Kicad,Pcbnew,10.0.3
; #@! TF.FileFunction,Plated,1,2,PTH
FMAT,2
METRIC
; #@! TA.AperFunction,Plated,PTH,ComponentDrill
T1C0.800
; #@! TA.AperFunction,Plated,PTH,ComponentDrill
T2C0.900
; #@! TA.AperFunction,Plated,PTH,ComponentDrill
T3C1.000
%
G90
G05
T1
X133.5Y-90.96
X133.5Y-93.5
X133.5Y-96.04
X138.44Y-76.25
X138.44Y-78.79
X138.44Y-81.33
X138.44Y-83.87
X140.125Y-97.175
X140.225Y-90.775
X145.125Y-97.175
X145.225Y-90.775
X146.06Y-76.25
X146.06Y-78.79
X146.06Y-81.33
X146.06Y-83.87
T2
X156.62Y-72.5
X156.735Y-81.25
X156.75Y-90.0
X159.16Y-72.5
X159.275Y-81.25
X159.29Y-90.0
T3
X154.25Y-98.75
X154.25Y-103.75
M30
