%TF.GenerationSoftware,KiCad,Pcbnew,10.0.3*%
%TF.CreationDate,2026-08-08T00:28:45+02:00*%
%TF.ProjectId,door-alarm,646f6f72-2d61-46c6-9172-6d2e6b696361,2.0*%
%TF.SameCoordinates,Original*%
%TF.FileFunction,Legend,Top*%
%TF.FilePolarity,Positive*%
%FSLAX46Y46*%
G04 Gerber Fmt 4.6, Leading zero omitted, Abs format (unit mm)*
G04 Created by KiCad (PCBNEW 10.0.3) date 2026-08-08 00:28:45*
%MOMM*%
%LPD*%
G01*
G04 APERTURE LIST*
%ADD10C,0.150000*%
%ADD11C,0.120000*%
G04 APERTURE END LIST*
D10*
X148681009Y-95880952D02*
X148728628Y-95738095D01*
X148728628Y-95738095D02*
X148776247Y-95690476D01*
X148776247Y-95690476D02*
X148871485Y-95642857D01*
X148871485Y-95642857D02*
X149014342Y-95642857D01*
X149014342Y-95642857D02*
X149109580Y-95690476D01*
X149109580Y-95690476D02*
X149157200Y-95738095D01*
X149157200Y-95738095D02*
X149204819Y-95833333D01*
X149204819Y-95833333D02*
X149204819Y-96214285D01*
X149204819Y-96214285D02*
X148204819Y-96214285D01*
X148204819Y-96214285D02*
X148204819Y-95880952D01*
X148204819Y-95880952D02*
X148252438Y-95785714D01*
X148252438Y-95785714D02*
X148300057Y-95738095D01*
X148300057Y-95738095D02*
X148395295Y-95690476D01*
X148395295Y-95690476D02*
X148490533Y-95690476D01*
X148490533Y-95690476D02*
X148585771Y-95738095D01*
X148585771Y-95738095D02*
X148633390Y-95785714D01*
X148633390Y-95785714D02*
X148681009Y-95880952D01*
X148681009Y-95880952D02*
X148681009Y-96214285D01*
X148204819Y-95309523D02*
X148204819Y-94642857D01*
X148204819Y-94642857D02*
X149204819Y-95309523D01*
X149204819Y-95309523D02*
X149204819Y-94642857D01*
X149204819Y-93738095D02*
X149204819Y-94309523D01*
X149204819Y-94023809D02*
X148204819Y-94023809D01*
X148204819Y-94023809D02*
X148347676Y-94119047D01*
X148347676Y-94119047D02*
X148442914Y-94214285D01*
X148442914Y-94214285D02*
X148490533Y-94309523D01*
X141488095Y-73374819D02*
X141488095Y-74184342D01*
X141488095Y-74184342D02*
X141535714Y-74279580D01*
X141535714Y-74279580D02*
X141583333Y-74327200D01*
X141583333Y-74327200D02*
X141678571Y-74374819D01*
X141678571Y-74374819D02*
X141869047Y-74374819D01*
X141869047Y-74374819D02*
X141964285Y-74327200D01*
X141964285Y-74327200D02*
X142011904Y-74279580D01*
X142011904Y-74279580D02*
X142059523Y-74184342D01*
X142059523Y-74184342D02*
X142059523Y-73374819D01*
X143059523Y-74374819D02*
X142488095Y-74374819D01*
X142773809Y-74374819D02*
X142773809Y-73374819D01*
X142773809Y-73374819D02*
X142678571Y-73517676D01*
X142678571Y-73517676D02*
X142583333Y-73612914D01*
X142583333Y-73612914D02*
X142488095Y-73660533D01*
X152204819Y-110809523D02*
X153204819Y-110476190D01*
X153204819Y-110476190D02*
X152204819Y-110142857D01*
X152300057Y-109857142D02*
X152252438Y-109809523D01*
X152252438Y-109809523D02*
X152204819Y-109714285D01*
X152204819Y-109714285D02*
X152204819Y-109476190D01*
X152204819Y-109476190D02*
X152252438Y-109380952D01*
X152252438Y-109380952D02*
X152300057Y-109333333D01*
X152300057Y-109333333D02*
X152395295Y-109285714D01*
X152395295Y-109285714D02*
X152490533Y-109285714D01*
X152490533Y-109285714D02*
X152633390Y-109333333D01*
X152633390Y-109333333D02*
X153204819Y-109904761D01*
X153204819Y-109904761D02*
X153204819Y-109285714D01*
X151165833Y-79874819D02*
X150832500Y-79398628D01*
X150594405Y-79874819D02*
X150594405Y-78874819D01*
X150594405Y-78874819D02*
X150975357Y-78874819D01*
X150975357Y-78874819D02*
X151070595Y-78922438D01*
X151070595Y-78922438D02*
X151118214Y-78970057D01*
X151118214Y-78970057D02*
X151165833Y-79065295D01*
X151165833Y-79065295D02*
X151165833Y-79208152D01*
X151165833Y-79208152D02*
X151118214Y-79303390D01*
X151118214Y-79303390D02*
X151070595Y-79351009D01*
X151070595Y-79351009D02*
X150975357Y-79398628D01*
X150975357Y-79398628D02*
X150594405Y-79398628D01*
X151499167Y-78874819D02*
X152118214Y-78874819D01*
X152118214Y-78874819D02*
X151784881Y-79255771D01*
X151784881Y-79255771D02*
X151927738Y-79255771D01*
X151927738Y-79255771D02*
X152022976Y-79303390D01*
X152022976Y-79303390D02*
X152070595Y-79351009D01*
X152070595Y-79351009D02*
X152118214Y-79446247D01*
X152118214Y-79446247D02*
X152118214Y-79684342D01*
X152118214Y-79684342D02*
X152070595Y-79779580D01*
X152070595Y-79779580D02*
X152022976Y-79827200D01*
X152022976Y-79827200D02*
X151927738Y-79874819D01*
X151927738Y-79874819D02*
X151642024Y-79874819D01*
X151642024Y-79874819D02*
X151546786Y-79827200D01*
X151546786Y-79827200D02*
X151499167Y-79779580D01*
X151065833Y-88624819D02*
X150732500Y-88148628D01*
X150494405Y-88624819D02*
X150494405Y-87624819D01*
X150494405Y-87624819D02*
X150875357Y-87624819D01*
X150875357Y-87624819D02*
X150970595Y-87672438D01*
X150970595Y-87672438D02*
X151018214Y-87720057D01*
X151018214Y-87720057D02*
X151065833Y-87815295D01*
X151065833Y-87815295D02*
X151065833Y-87958152D01*
X151065833Y-87958152D02*
X151018214Y-88053390D01*
X151018214Y-88053390D02*
X150970595Y-88101009D01*
X150970595Y-88101009D02*
X150875357Y-88148628D01*
X150875357Y-88148628D02*
X150494405Y-88148628D01*
X151922976Y-87958152D02*
X151922976Y-88624819D01*
X151684881Y-87577200D02*
X151446786Y-88291485D01*
X151446786Y-88291485D02*
X152065833Y-88291485D01*
X142458333Y-95034580D02*
X142410714Y-95082200D01*
X142410714Y-95082200D02*
X142267857Y-95129819D01*
X142267857Y-95129819D02*
X142172619Y-95129819D01*
X142172619Y-95129819D02*
X142029762Y-95082200D01*
X142029762Y-95082200D02*
X141934524Y-94986961D01*
X141934524Y-94986961D02*
X141886905Y-94891723D01*
X141886905Y-94891723D02*
X141839286Y-94701247D01*
X141839286Y-94701247D02*
X141839286Y-94558390D01*
X141839286Y-94558390D02*
X141886905Y-94367914D01*
X141886905Y-94367914D02*
X141934524Y-94272676D01*
X141934524Y-94272676D02*
X142029762Y-94177438D01*
X142029762Y-94177438D02*
X142172619Y-94129819D01*
X142172619Y-94129819D02*
X142267857Y-94129819D01*
X142267857Y-94129819D02*
X142410714Y-94177438D01*
X142410714Y-94177438D02*
X142458333Y-94225057D01*
X142839286Y-94225057D02*
X142886905Y-94177438D01*
X142886905Y-94177438D02*
X142982143Y-94129819D01*
X142982143Y-94129819D02*
X143220238Y-94129819D01*
X143220238Y-94129819D02*
X143315476Y-94177438D01*
X143315476Y-94177438D02*
X143363095Y-94225057D01*
X143363095Y-94225057D02*
X143410714Y-94320295D01*
X143410714Y-94320295D02*
X143410714Y-94415533D01*
X143410714Y-94415533D02*
X143363095Y-94558390D01*
X143363095Y-94558390D02*
X142791667Y-95129819D01*
X142791667Y-95129819D02*
X143410714Y-95129819D01*
X142558333Y-88634580D02*
X142510714Y-88682200D01*
X142510714Y-88682200D02*
X142367857Y-88729819D01*
X142367857Y-88729819D02*
X142272619Y-88729819D01*
X142272619Y-88729819D02*
X142129762Y-88682200D01*
X142129762Y-88682200D02*
X142034524Y-88586961D01*
X142034524Y-88586961D02*
X141986905Y-88491723D01*
X141986905Y-88491723D02*
X141939286Y-88301247D01*
X141939286Y-88301247D02*
X141939286Y-88158390D01*
X141939286Y-88158390D02*
X141986905Y-87967914D01*
X141986905Y-87967914D02*
X142034524Y-87872676D01*
X142034524Y-87872676D02*
X142129762Y-87777438D01*
X142129762Y-87777438D02*
X142272619Y-87729819D01*
X142272619Y-87729819D02*
X142367857Y-87729819D01*
X142367857Y-87729819D02*
X142510714Y-87777438D01*
X142510714Y-87777438D02*
X142558333Y-87825057D01*
X143510714Y-88729819D02*
X142939286Y-88729819D01*
X143225000Y-88729819D02*
X143225000Y-87729819D01*
X143225000Y-87729819D02*
X143129762Y-87872676D01*
X143129762Y-87872676D02*
X143034524Y-87967914D01*
X143034524Y-87967914D02*
X142939286Y-88015533D01*
X126257200Y-91083332D02*
X126304819Y-90940475D01*
X126304819Y-90940475D02*
X126304819Y-90702380D01*
X126304819Y-90702380D02*
X126257200Y-90607142D01*
X126257200Y-90607142D02*
X126209580Y-90559523D01*
X126209580Y-90559523D02*
X126114342Y-90511904D01*
X126114342Y-90511904D02*
X126019104Y-90511904D01*
X126019104Y-90511904D02*
X125923866Y-90559523D01*
X125923866Y-90559523D02*
X125876247Y-90607142D01*
X125876247Y-90607142D02*
X125828628Y-90702380D01*
X125828628Y-90702380D02*
X125781009Y-90892856D01*
X125781009Y-90892856D02*
X125733390Y-90988094D01*
X125733390Y-90988094D02*
X125685771Y-91035713D01*
X125685771Y-91035713D02*
X125590533Y-91083332D01*
X125590533Y-91083332D02*
X125495295Y-91083332D01*
X125495295Y-91083332D02*
X125400057Y-91035713D01*
X125400057Y-91035713D02*
X125352438Y-90988094D01*
X125352438Y-90988094D02*
X125304819Y-90892856D01*
X125304819Y-90892856D02*
X125304819Y-90654761D01*
X125304819Y-90654761D02*
X125352438Y-90511904D01*
X125304819Y-90178570D02*
X126304819Y-89940475D01*
X126304819Y-89940475D02*
X125590533Y-89749999D01*
X125590533Y-89749999D02*
X126304819Y-89559523D01*
X126304819Y-89559523D02*
X125304819Y-89321428D01*
X126304819Y-88416666D02*
X126304819Y-88988094D01*
X126304819Y-88702380D02*
X125304819Y-88702380D01*
X125304819Y-88702380D02*
X125447676Y-88797618D01*
X125447676Y-88797618D02*
X125542914Y-88892856D01*
X125542914Y-88892856D02*
X125590533Y-88988094D01*
X130729819Y-71759523D02*
X131729819Y-71426190D01*
X131729819Y-71426190D02*
X130729819Y-71092857D01*
X131729819Y-70235714D02*
X131729819Y-70807142D01*
X131729819Y-70521428D02*
X130729819Y-70521428D01*
X130729819Y-70521428D02*
X130872676Y-70616666D01*
X130872676Y-70616666D02*
X130967914Y-70711904D01*
X130967914Y-70711904D02*
X131015533Y-70807142D01*
X132954819Y-101055238D02*
X132478628Y-101388571D01*
X132954819Y-101626666D02*
X131954819Y-101626666D01*
X131954819Y-101626666D02*
X131954819Y-101245714D01*
X131954819Y-101245714D02*
X132002438Y-101150476D01*
X132002438Y-101150476D02*
X132050057Y-101102857D01*
X132050057Y-101102857D02*
X132145295Y-101055238D01*
X132145295Y-101055238D02*
X132288152Y-101055238D01*
X132288152Y-101055238D02*
X132383390Y-101102857D01*
X132383390Y-101102857D02*
X132431009Y-101150476D01*
X132431009Y-101150476D02*
X132478628Y-101245714D01*
X132478628Y-101245714D02*
X132478628Y-101626666D01*
X131954819Y-100769523D02*
X132954819Y-100436190D01*
X132954819Y-100436190D02*
X131954819Y-100102857D01*
X132954819Y-99245714D02*
X132954819Y-99817142D01*
X132954819Y-99531428D02*
X131954819Y-99531428D01*
X131954819Y-99531428D02*
X132097676Y-99626666D01*
X132097676Y-99626666D02*
X132192914Y-99721904D01*
X132192914Y-99721904D02*
X132240533Y-99817142D01*
X131624819Y-77204166D02*
X131148628Y-77537499D01*
X131624819Y-77775594D02*
X130624819Y-77775594D01*
X130624819Y-77775594D02*
X130624819Y-77394642D01*
X130624819Y-77394642D02*
X130672438Y-77299404D01*
X130672438Y-77299404D02*
X130720057Y-77251785D01*
X130720057Y-77251785D02*
X130815295Y-77204166D01*
X130815295Y-77204166D02*
X130958152Y-77204166D01*
X130958152Y-77204166D02*
X131053390Y-77251785D01*
X131053390Y-77251785D02*
X131101009Y-77299404D01*
X131101009Y-77299404D02*
X131148628Y-77394642D01*
X131148628Y-77394642D02*
X131148628Y-77775594D01*
X130624819Y-76870832D02*
X130624819Y-76204166D01*
X130624819Y-76204166D02*
X131624819Y-76632737D01*
X134883333Y-87429819D02*
X134550000Y-86953628D01*
X134311905Y-87429819D02*
X134311905Y-86429819D01*
X134311905Y-86429819D02*
X134692857Y-86429819D01*
X134692857Y-86429819D02*
X134788095Y-86477438D01*
X134788095Y-86477438D02*
X134835714Y-86525057D01*
X134835714Y-86525057D02*
X134883333Y-86620295D01*
X134883333Y-86620295D02*
X134883333Y-86763152D01*
X134883333Y-86763152D02*
X134835714Y-86858390D01*
X134835714Y-86858390D02*
X134788095Y-86906009D01*
X134788095Y-86906009D02*
X134692857Y-86953628D01*
X134692857Y-86953628D02*
X134311905Y-86953628D01*
X135740476Y-86429819D02*
X135550000Y-86429819D01*
X135550000Y-86429819D02*
X135454762Y-86477438D01*
X135454762Y-86477438D02*
X135407143Y-86525057D01*
X135407143Y-86525057D02*
X135311905Y-86667914D01*
X135311905Y-86667914D02*
X135264286Y-86858390D01*
X135264286Y-86858390D02*
X135264286Y-87239342D01*
X135264286Y-87239342D02*
X135311905Y-87334580D01*
X135311905Y-87334580D02*
X135359524Y-87382200D01*
X135359524Y-87382200D02*
X135454762Y-87429819D01*
X135454762Y-87429819D02*
X135645238Y-87429819D01*
X135645238Y-87429819D02*
X135740476Y-87382200D01*
X135740476Y-87382200D02*
X135788095Y-87334580D01*
X135788095Y-87334580D02*
X135835714Y-87239342D01*
X135835714Y-87239342D02*
X135835714Y-87001247D01*
X135835714Y-87001247D02*
X135788095Y-86906009D01*
X135788095Y-86906009D02*
X135740476Y-86858390D01*
X135740476Y-86858390D02*
X135645238Y-86810771D01*
X135645238Y-86810771D02*
X135454762Y-86810771D01*
X135454762Y-86810771D02*
X135359524Y-86858390D01*
X135359524Y-86858390D02*
X135311905Y-86906009D01*
X135311905Y-86906009D02*
X135264286Y-87001247D01*
X151180833Y-71124819D02*
X150847500Y-70648628D01*
X150609405Y-71124819D02*
X150609405Y-70124819D01*
X150609405Y-70124819D02*
X150990357Y-70124819D01*
X150990357Y-70124819D02*
X151085595Y-70172438D01*
X151085595Y-70172438D02*
X151133214Y-70220057D01*
X151133214Y-70220057D02*
X151180833Y-70315295D01*
X151180833Y-70315295D02*
X151180833Y-70458152D01*
X151180833Y-70458152D02*
X151133214Y-70553390D01*
X151133214Y-70553390D02*
X151085595Y-70601009D01*
X151085595Y-70601009D02*
X150990357Y-70648628D01*
X150990357Y-70648628D02*
X150609405Y-70648628D01*
X151561786Y-70220057D02*
X151609405Y-70172438D01*
X151609405Y-70172438D02*
X151704643Y-70124819D01*
X151704643Y-70124819D02*
X151942738Y-70124819D01*
X151942738Y-70124819D02*
X152037976Y-70172438D01*
X152037976Y-70172438D02*
X152085595Y-70220057D01*
X152085595Y-70220057D02*
X152133214Y-70315295D01*
X152133214Y-70315295D02*
X152133214Y-70410533D01*
X152133214Y-70410533D02*
X152085595Y-70553390D01*
X152085595Y-70553390D02*
X151514167Y-71124819D01*
X151514167Y-71124819D02*
X152133214Y-71124819D01*
X157281905Y-94414819D02*
X157281905Y-93414819D01*
X157281905Y-93414819D02*
X157520000Y-93414819D01*
X157520000Y-93414819D02*
X157662857Y-93462438D01*
X157662857Y-93462438D02*
X157758095Y-93557676D01*
X157758095Y-93557676D02*
X157805714Y-93652914D01*
X157805714Y-93652914D02*
X157853333Y-93843390D01*
X157853333Y-93843390D02*
X157853333Y-93986247D01*
X157853333Y-93986247D02*
X157805714Y-94176723D01*
X157805714Y-94176723D02*
X157758095Y-94271961D01*
X157758095Y-94271961D02*
X157662857Y-94367200D01*
X157662857Y-94367200D02*
X157520000Y-94414819D01*
X157520000Y-94414819D02*
X157281905Y-94414819D01*
X158186667Y-93414819D02*
X158805714Y-93414819D01*
X158805714Y-93414819D02*
X158472381Y-93795771D01*
X158472381Y-93795771D02*
X158615238Y-93795771D01*
X158615238Y-93795771D02*
X158710476Y-93843390D01*
X158710476Y-93843390D02*
X158758095Y-93891009D01*
X158758095Y-93891009D02*
X158805714Y-93986247D01*
X158805714Y-93986247D02*
X158805714Y-94224342D01*
X158805714Y-94224342D02*
X158758095Y-94319580D01*
X158758095Y-94319580D02*
X158710476Y-94367200D01*
X158710476Y-94367200D02*
X158615238Y-94414819D01*
X158615238Y-94414819D02*
X158329524Y-94414819D01*
X158329524Y-94414819D02*
X158234286Y-94367200D01*
X158234286Y-94367200D02*
X158186667Y-94319580D01*
X157266905Y-85664819D02*
X157266905Y-84664819D01*
X157266905Y-84664819D02*
X157505000Y-84664819D01*
X157505000Y-84664819D02*
X157647857Y-84712438D01*
X157647857Y-84712438D02*
X157743095Y-84807676D01*
X157743095Y-84807676D02*
X157790714Y-84902914D01*
X157790714Y-84902914D02*
X157838333Y-85093390D01*
X157838333Y-85093390D02*
X157838333Y-85236247D01*
X157838333Y-85236247D02*
X157790714Y-85426723D01*
X157790714Y-85426723D02*
X157743095Y-85521961D01*
X157743095Y-85521961D02*
X157647857Y-85617200D01*
X157647857Y-85617200D02*
X157505000Y-85664819D01*
X157505000Y-85664819D02*
X157266905Y-85664819D01*
X158219286Y-84760057D02*
X158266905Y-84712438D01*
X158266905Y-84712438D02*
X158362143Y-84664819D01*
X158362143Y-84664819D02*
X158600238Y-84664819D01*
X158600238Y-84664819D02*
X158695476Y-84712438D01*
X158695476Y-84712438D02*
X158743095Y-84760057D01*
X158743095Y-84760057D02*
X158790714Y-84855295D01*
X158790714Y-84855295D02*
X158790714Y-84950533D01*
X158790714Y-84950533D02*
X158743095Y-85093390D01*
X158743095Y-85093390D02*
X158171667Y-85664819D01*
X158171667Y-85664819D02*
X158790714Y-85664819D01*
X157151905Y-76914819D02*
X157151905Y-75914819D01*
X157151905Y-75914819D02*
X157390000Y-75914819D01*
X157390000Y-75914819D02*
X157532857Y-75962438D01*
X157532857Y-75962438D02*
X157628095Y-76057676D01*
X157628095Y-76057676D02*
X157675714Y-76152914D01*
X157675714Y-76152914D02*
X157723333Y-76343390D01*
X157723333Y-76343390D02*
X157723333Y-76486247D01*
X157723333Y-76486247D02*
X157675714Y-76676723D01*
X157675714Y-76676723D02*
X157628095Y-76771961D01*
X157628095Y-76771961D02*
X157532857Y-76867200D01*
X157532857Y-76867200D02*
X157390000Y-76914819D01*
X157390000Y-76914819D02*
X157151905Y-76914819D01*
X158675714Y-76914819D02*
X158104286Y-76914819D01*
X158390000Y-76914819D02*
X158390000Y-75914819D01*
X158390000Y-75914819D02*
X158294762Y-76057676D01*
X158294762Y-76057676D02*
X158199524Y-76152914D01*
X158199524Y-76152914D02*
X158104286Y-76200533D01*
%TO.C,BZ1*%
D11*
X160480000Y-101250000D02*
G75*
G02*
X148020000Y-101250000I-6230000J0D01*
G01*
X148020000Y-101250000D02*
G75*
G02*
X160480000Y-101250000I6230000J0D01*
G01*
X152750001Y-94850000D02*
G75*
G02*
X155750000Y-94850000I1499999J-6400000D01*
G01*
%TO.C,U1*%
X143250000Y-74920000D02*
G75*
G02*
X141250000Y-74920000I-1000000J0D01*
G01*
X144900000Y-85200000D02*
X144900000Y-74920000D01*
X144900000Y-74920000D02*
X143250000Y-74920000D01*
X141250000Y-74920000D02*
X139600000Y-74920000D01*
X139600000Y-85200000D02*
X144900000Y-85200000D01*
X139600000Y-74920000D02*
X139600000Y-85200000D01*
%TO.C,V2*%
X143846385Y-124751464D02*
G75*
G02*
X136150000Y-124750000I-3846385J9501464D01*
G01*
X124450000Y-112500000D02*
X124450000Y-118000000D01*
X124450000Y-118000000D02*
X129250000Y-118000000D01*
X129250000Y-112500000D02*
X124450000Y-112500000D01*
X129450000Y-124750000D02*
X136150000Y-124750000D01*
X136050000Y-104400000D02*
X129250000Y-109200000D01*
X143950000Y-104400000D02*
X136050000Y-104400000D01*
X150550000Y-124750000D02*
X143850000Y-124750000D01*
X150750000Y-118000000D02*
X155550000Y-118000000D01*
X150800000Y-109200000D02*
X143950000Y-104400000D01*
X155550000Y-112500000D02*
X150750000Y-112500000D01*
X155550000Y-118000000D02*
X155550000Y-112500000D01*
%TO.C,R3*%
X150605436Y-82160000D02*
X152059564Y-82160000D01*
X150605436Y-80340000D02*
X152059564Y-80340000D01*
%TO.C,R4*%
X150505436Y-90910000D02*
X151959564Y-90910000D01*
X150505436Y-89090000D02*
X151959564Y-89090000D01*
%TO.C,C2*%
X145245000Y-98545000D02*
X140005000Y-98545000D01*
X145245000Y-98208000D02*
X145245000Y-98545000D01*
X145245000Y-95805000D02*
X145245000Y-96142000D01*
X140005000Y-98545000D02*
X140005000Y-98208000D01*
X140005000Y-96142000D02*
X140005000Y-95805000D01*
X140005000Y-95805000D02*
X145245000Y-95805000D01*
%TO.C,C1*%
X140105000Y-89405000D02*
X145345000Y-89405000D01*
X140105000Y-89742000D02*
X140105000Y-89405000D01*
X140105000Y-92145000D02*
X140105000Y-91808000D01*
X145345000Y-89405000D02*
X145345000Y-89742000D01*
X145345000Y-91808000D02*
X145345000Y-92145000D01*
X145345000Y-92145000D02*
X140105000Y-92145000D01*
%TO.C,SW1*%
X126660000Y-82280000D02*
X129360000Y-82280000D01*
X129360000Y-97220000D01*
X126660000Y-97220000D01*
X126660000Y-82280000D01*
%TO.C,V1*%
X124700000Y-58500000D02*
X124700000Y-64000000D01*
X124700000Y-64000000D02*
X129500000Y-64000000D01*
X129450000Y-67300000D02*
X136300000Y-72100000D01*
X129500000Y-58500000D02*
X124700000Y-58500000D01*
X129700000Y-51750000D02*
X136400000Y-51750000D01*
X136300000Y-72100000D02*
X144200000Y-72100000D01*
X144200000Y-72100000D02*
X151000000Y-67300000D01*
X150800000Y-51750000D02*
X144100000Y-51750000D01*
X151000000Y-64000000D02*
X155800000Y-64000000D01*
X155800000Y-58500000D02*
X151000000Y-58500000D01*
X155800000Y-64000000D02*
X155800000Y-58500000D01*
X136403615Y-51748536D02*
G75*
G02*
X144100000Y-51750000I3846385J-9501464D01*
G01*
%TO.C,RV1*%
X133570000Y-98485000D02*
X133570000Y-96987000D01*
X134570000Y-98485000D02*
X134570000Y-97725000D01*
X135570000Y-98485000D02*
X133570000Y-98485000D01*
X131230000Y-96965000D02*
X131230000Y-90035000D01*
X133283000Y-96965000D02*
X131230000Y-96965000D01*
X133717000Y-96965000D02*
X135570000Y-96965000D01*
X135570000Y-96965000D02*
X135570000Y-98485000D01*
X135950000Y-96965000D02*
X133717000Y-96965000D01*
X131230000Y-90035000D02*
X133283000Y-90035000D01*
X133717000Y-90035000D02*
X135950000Y-90035000D01*
X135950000Y-90035000D02*
X135950000Y-96965000D01*
%TO.C,R7*%
X132090000Y-77764564D02*
X132090000Y-76310436D01*
X133910000Y-77764564D02*
X133910000Y-76310436D01*
%TO.C,R6*%
X134227064Y-85910000D02*
X132772936Y-85910000D01*
X134227064Y-84090000D02*
X132772936Y-84090000D01*
%TO.C,R2*%
X150620436Y-71590000D02*
X152074564Y-71590000D01*
X150620436Y-73410000D02*
X152074564Y-73410000D01*
%TO.C,D3*%
X160580000Y-91545000D02*
X160580000Y-88455000D01*
X160580000Y-91544830D02*
G75*
G02*
X155030000Y-90000000I-2560000J1544830D01*
G01*
X155030000Y-90000000D02*
G75*
G02*
X160580000Y-88455170I2990000J0D01*
G01*
X160520000Y-90000000D02*
G75*
G02*
X155520000Y-90000000I-2500000J0D01*
G01*
X155520000Y-90000000D02*
G75*
G02*
X160520000Y-90000000I2500000J0D01*
G01*
%TO.C,D2*%
X160565000Y-82795000D02*
X160565000Y-79705000D01*
X160565000Y-82794830D02*
G75*
G02*
X155015000Y-81250000I-2560000J1544830D01*
G01*
X155015000Y-81250000D02*
G75*
G02*
X160565000Y-79705170I2990000J0D01*
G01*
X160505000Y-81250000D02*
G75*
G02*
X155505000Y-81250000I-2500000J0D01*
G01*
X155505000Y-81250000D02*
G75*
G02*
X160505000Y-81250000I2500000J0D01*
G01*
%TO.C,D1*%
X160450000Y-74045000D02*
X160450000Y-70955000D01*
X160450000Y-74044830D02*
G75*
G02*
X154900000Y-72500000I-2560000J1544830D01*
G01*
X154900000Y-72500000D02*
G75*
G02*
X160450000Y-70955170I2990000J0D01*
G01*
X160390000Y-72500000D02*
G75*
G02*
X155390000Y-72500000I-2500000J0D01*
G01*
X155390000Y-72500000D02*
G75*
G02*
X160390000Y-72500000I2500000J0D01*
G01*
%TD*%
M02*
