%TF.GenerationSoftware,KiCad,Pcbnew,10.0.3*%
%TF.CreationDate,2026-08-05T18:05:35+02:00*%
%TF.ProjectId,door-alarm,646f6f72-2d61-46c6-9172-6d2e6b696361,rev?*%
%TF.SameCoordinates,Original*%
%TF.FileFunction,Legend,Top*%
%TF.FilePolarity,Positive*%
%FSLAX46Y46*%
G04 Gerber Fmt 4.6, Leading zero omitted, Abs format (unit mm)*
G04 Created by KiCad (PCBNEW 10.0.3) date 2026-08-05 18:05:35*
%MOMM*%
%LPD*%
G01*
G04 APERTURE LIST*
%ADD10C,0.300000*%
%ADD11C,0.150000*%
%ADD12C,0.120000*%
G04 APERTURE END LIST*
D10*
X80885912Y-97945489D02*
X79385912Y-97945489D01*
X79385912Y-97945489D02*
X79385912Y-97588346D01*
X79385912Y-97588346D02*
X79457341Y-97374060D01*
X79457341Y-97374060D02*
X79600198Y-97231203D01*
X79600198Y-97231203D02*
X79743055Y-97159774D01*
X79743055Y-97159774D02*
X80028769Y-97088346D01*
X80028769Y-97088346D02*
X80243055Y-97088346D01*
X80243055Y-97088346D02*
X80528769Y-97159774D01*
X80528769Y-97159774D02*
X80671626Y-97231203D01*
X80671626Y-97231203D02*
X80814484Y-97374060D01*
X80814484Y-97374060D02*
X80885912Y-97588346D01*
X80885912Y-97588346D02*
X80885912Y-97945489D01*
X80885912Y-96231203D02*
X80814484Y-96374060D01*
X80814484Y-96374060D02*
X80743055Y-96445489D01*
X80743055Y-96445489D02*
X80600198Y-96516917D01*
X80600198Y-96516917D02*
X80171626Y-96516917D01*
X80171626Y-96516917D02*
X80028769Y-96445489D01*
X80028769Y-96445489D02*
X79957341Y-96374060D01*
X79957341Y-96374060D02*
X79885912Y-96231203D01*
X79885912Y-96231203D02*
X79885912Y-96016917D01*
X79885912Y-96016917D02*
X79957341Y-95874060D01*
X79957341Y-95874060D02*
X80028769Y-95802632D01*
X80028769Y-95802632D02*
X80171626Y-95731203D01*
X80171626Y-95731203D02*
X80600198Y-95731203D01*
X80600198Y-95731203D02*
X80743055Y-95802632D01*
X80743055Y-95802632D02*
X80814484Y-95874060D01*
X80814484Y-95874060D02*
X80885912Y-96016917D01*
X80885912Y-96016917D02*
X80885912Y-96231203D01*
X80885912Y-94874060D02*
X80814484Y-95016917D01*
X80814484Y-95016917D02*
X80743055Y-95088346D01*
X80743055Y-95088346D02*
X80600198Y-95159774D01*
X80600198Y-95159774D02*
X80171626Y-95159774D01*
X80171626Y-95159774D02*
X80028769Y-95088346D01*
X80028769Y-95088346D02*
X79957341Y-95016917D01*
X79957341Y-95016917D02*
X79885912Y-94874060D01*
X79885912Y-94874060D02*
X79885912Y-94659774D01*
X79885912Y-94659774D02*
X79957341Y-94516917D01*
X79957341Y-94516917D02*
X80028769Y-94445489D01*
X80028769Y-94445489D02*
X80171626Y-94374060D01*
X80171626Y-94374060D02*
X80600198Y-94374060D01*
X80600198Y-94374060D02*
X80743055Y-94445489D01*
X80743055Y-94445489D02*
X80814484Y-94516917D01*
X80814484Y-94516917D02*
X80885912Y-94659774D01*
X80885912Y-94659774D02*
X80885912Y-94874060D01*
X80885912Y-93731203D02*
X79885912Y-93731203D01*
X80171626Y-93731203D02*
X80028769Y-93659774D01*
X80028769Y-93659774D02*
X79957341Y-93588346D01*
X79957341Y-93588346D02*
X79885912Y-93445488D01*
X79885912Y-93445488D02*
X79885912Y-93302631D01*
X80885912Y-91016918D02*
X80100198Y-91016918D01*
X80100198Y-91016918D02*
X79957341Y-91088346D01*
X79957341Y-91088346D02*
X79885912Y-91231203D01*
X79885912Y-91231203D02*
X79885912Y-91516918D01*
X79885912Y-91516918D02*
X79957341Y-91659775D01*
X80814484Y-91016918D02*
X80885912Y-91159775D01*
X80885912Y-91159775D02*
X80885912Y-91516918D01*
X80885912Y-91516918D02*
X80814484Y-91659775D01*
X80814484Y-91659775D02*
X80671626Y-91731203D01*
X80671626Y-91731203D02*
X80528769Y-91731203D01*
X80528769Y-91731203D02*
X80385912Y-91659775D01*
X80385912Y-91659775D02*
X80314484Y-91516918D01*
X80314484Y-91516918D02*
X80314484Y-91159775D01*
X80314484Y-91159775D02*
X80243055Y-91016918D01*
X80885912Y-90088346D02*
X80814484Y-90231203D01*
X80814484Y-90231203D02*
X80671626Y-90302632D01*
X80671626Y-90302632D02*
X79385912Y-90302632D01*
X80885912Y-88874061D02*
X80100198Y-88874061D01*
X80100198Y-88874061D02*
X79957341Y-88945489D01*
X79957341Y-88945489D02*
X79885912Y-89088346D01*
X79885912Y-89088346D02*
X79885912Y-89374061D01*
X79885912Y-89374061D02*
X79957341Y-89516918D01*
X80814484Y-88874061D02*
X80885912Y-89016918D01*
X80885912Y-89016918D02*
X80885912Y-89374061D01*
X80885912Y-89374061D02*
X80814484Y-89516918D01*
X80814484Y-89516918D02*
X80671626Y-89588346D01*
X80671626Y-89588346D02*
X80528769Y-89588346D01*
X80528769Y-89588346D02*
X80385912Y-89516918D01*
X80385912Y-89516918D02*
X80314484Y-89374061D01*
X80314484Y-89374061D02*
X80314484Y-89016918D01*
X80314484Y-89016918D02*
X80243055Y-88874061D01*
X80885912Y-88159775D02*
X79885912Y-88159775D01*
X80171626Y-88159775D02*
X80028769Y-88088346D01*
X80028769Y-88088346D02*
X79957341Y-88016918D01*
X79957341Y-88016918D02*
X79885912Y-87874060D01*
X79885912Y-87874060D02*
X79885912Y-87731203D01*
X80885912Y-87231204D02*
X79885912Y-87231204D01*
X80028769Y-87231204D02*
X79957341Y-87159775D01*
X79957341Y-87159775D02*
X79885912Y-87016918D01*
X79885912Y-87016918D02*
X79885912Y-86802632D01*
X79885912Y-86802632D02*
X79957341Y-86659775D01*
X79957341Y-86659775D02*
X80100198Y-86588347D01*
X80100198Y-86588347D02*
X80885912Y-86588347D01*
X80100198Y-86588347D02*
X79957341Y-86516918D01*
X79957341Y-86516918D02*
X79885912Y-86374061D01*
X79885912Y-86374061D02*
X79885912Y-86159775D01*
X79885912Y-86159775D02*
X79957341Y-86016918D01*
X79957341Y-86016918D02*
X80100198Y-85945489D01*
X80100198Y-85945489D02*
X80885912Y-85945489D01*
X79385912Y-84302632D02*
X80885912Y-83802632D01*
X80885912Y-83802632D02*
X79385912Y-83302632D01*
X80885912Y-82016918D02*
X80885912Y-82874061D01*
X80885912Y-82445490D02*
X79385912Y-82445490D01*
X79385912Y-82445490D02*
X79600198Y-82588347D01*
X79600198Y-82588347D02*
X79743055Y-82731204D01*
X79743055Y-82731204D02*
X79814484Y-82874061D01*
X82300828Y-98088346D02*
X83300828Y-97802632D01*
X83300828Y-97802632D02*
X82586542Y-97516917D01*
X82586542Y-97516917D02*
X83300828Y-97231203D01*
X83300828Y-97231203D02*
X82300828Y-96945489D01*
X82300828Y-96516917D02*
X83300828Y-96231203D01*
X83300828Y-96231203D02*
X82586542Y-95945488D01*
X82586542Y-95945488D02*
X83300828Y-95659774D01*
X83300828Y-95659774D02*
X82300828Y-95374060D01*
X82300828Y-94945488D02*
X83300828Y-94659774D01*
X83300828Y-94659774D02*
X82586542Y-94374059D01*
X82586542Y-94374059D02*
X83300828Y-94088345D01*
X83300828Y-94088345D02*
X82300828Y-93802631D01*
X83157971Y-93231202D02*
X83229400Y-93159773D01*
X83229400Y-93159773D02*
X83300828Y-93231202D01*
X83300828Y-93231202D02*
X83229400Y-93302630D01*
X83229400Y-93302630D02*
X83157971Y-93231202D01*
X83157971Y-93231202D02*
X83300828Y-93231202D01*
X83300828Y-92516916D02*
X82300828Y-92516916D01*
X82586542Y-92516916D02*
X82443685Y-92445487D01*
X82443685Y-92445487D02*
X82372257Y-92374059D01*
X82372257Y-92374059D02*
X82300828Y-92231201D01*
X82300828Y-92231201D02*
X82300828Y-92088344D01*
X83300828Y-91374059D02*
X83229400Y-91516916D01*
X83229400Y-91516916D02*
X83157971Y-91588345D01*
X83157971Y-91588345D02*
X83015114Y-91659773D01*
X83015114Y-91659773D02*
X82586542Y-91659773D01*
X82586542Y-91659773D02*
X82443685Y-91588345D01*
X82443685Y-91588345D02*
X82372257Y-91516916D01*
X82372257Y-91516916D02*
X82300828Y-91374059D01*
X82300828Y-91374059D02*
X82300828Y-91159773D01*
X82300828Y-91159773D02*
X82372257Y-91016916D01*
X82372257Y-91016916D02*
X82443685Y-90945488D01*
X82443685Y-90945488D02*
X82586542Y-90874059D01*
X82586542Y-90874059D02*
X83015114Y-90874059D01*
X83015114Y-90874059D02*
X83157971Y-90945488D01*
X83157971Y-90945488D02*
X83229400Y-91016916D01*
X83229400Y-91016916D02*
X83300828Y-91159773D01*
X83300828Y-91159773D02*
X83300828Y-91374059D01*
X83300828Y-90231202D02*
X82300828Y-90231202D01*
X81800828Y-90231202D02*
X81872257Y-90302630D01*
X81872257Y-90302630D02*
X81943685Y-90231202D01*
X81943685Y-90231202D02*
X81872257Y-90159773D01*
X81872257Y-90159773D02*
X81800828Y-90231202D01*
X81800828Y-90231202D02*
X81943685Y-90231202D01*
X83300828Y-89302630D02*
X83229400Y-89445487D01*
X83229400Y-89445487D02*
X83086542Y-89516916D01*
X83086542Y-89516916D02*
X81800828Y-89516916D01*
X83300828Y-88731202D02*
X81800828Y-88731202D01*
X82372257Y-88731202D02*
X82300828Y-88588345D01*
X82300828Y-88588345D02*
X82300828Y-88302630D01*
X82300828Y-88302630D02*
X82372257Y-88159773D01*
X82372257Y-88159773D02*
X82443685Y-88088345D01*
X82443685Y-88088345D02*
X82586542Y-88016916D01*
X82586542Y-88016916D02*
X83015114Y-88016916D01*
X83015114Y-88016916D02*
X83157971Y-88088345D01*
X83157971Y-88088345D02*
X83229400Y-88159773D01*
X83229400Y-88159773D02*
X83300828Y-88302630D01*
X83300828Y-88302630D02*
X83300828Y-88588345D01*
X83300828Y-88588345D02*
X83229400Y-88731202D01*
X83157971Y-87374059D02*
X83229400Y-87302630D01*
X83229400Y-87302630D02*
X83300828Y-87374059D01*
X83300828Y-87374059D02*
X83229400Y-87445487D01*
X83229400Y-87445487D02*
X83157971Y-87374059D01*
X83157971Y-87374059D02*
X83300828Y-87374059D01*
X83229400Y-86016916D02*
X83300828Y-86159773D01*
X83300828Y-86159773D02*
X83300828Y-86445487D01*
X83300828Y-86445487D02*
X83229400Y-86588344D01*
X83229400Y-86588344D02*
X83157971Y-86659773D01*
X83157971Y-86659773D02*
X83015114Y-86731201D01*
X83015114Y-86731201D02*
X82586542Y-86731201D01*
X82586542Y-86731201D02*
X82443685Y-86659773D01*
X82443685Y-86659773D02*
X82372257Y-86588344D01*
X82372257Y-86588344D02*
X82300828Y-86445487D01*
X82300828Y-86445487D02*
X82300828Y-86159773D01*
X82300828Y-86159773D02*
X82372257Y-86016916D01*
X83300828Y-85159773D02*
X83229400Y-85302630D01*
X83229400Y-85302630D02*
X83157971Y-85374059D01*
X83157971Y-85374059D02*
X83015114Y-85445487D01*
X83015114Y-85445487D02*
X82586542Y-85445487D01*
X82586542Y-85445487D02*
X82443685Y-85374059D01*
X82443685Y-85374059D02*
X82372257Y-85302630D01*
X82372257Y-85302630D02*
X82300828Y-85159773D01*
X82300828Y-85159773D02*
X82300828Y-84945487D01*
X82300828Y-84945487D02*
X82372257Y-84802630D01*
X82372257Y-84802630D02*
X82443685Y-84731202D01*
X82443685Y-84731202D02*
X82586542Y-84659773D01*
X82586542Y-84659773D02*
X83015114Y-84659773D01*
X83015114Y-84659773D02*
X83157971Y-84731202D01*
X83157971Y-84731202D02*
X83229400Y-84802630D01*
X83229400Y-84802630D02*
X83300828Y-84945487D01*
X83300828Y-84945487D02*
X83300828Y-85159773D01*
X83300828Y-84016916D02*
X82300828Y-84016916D01*
X82443685Y-84016916D02*
X82372257Y-83945487D01*
X82372257Y-83945487D02*
X82300828Y-83802630D01*
X82300828Y-83802630D02*
X82300828Y-83588344D01*
X82300828Y-83588344D02*
X82372257Y-83445487D01*
X82372257Y-83445487D02*
X82515114Y-83374059D01*
X82515114Y-83374059D02*
X83300828Y-83374059D01*
X82515114Y-83374059D02*
X82372257Y-83302630D01*
X82372257Y-83302630D02*
X82300828Y-83159773D01*
X82300828Y-83159773D02*
X82300828Y-82945487D01*
X82300828Y-82945487D02*
X82372257Y-82802630D01*
X82372257Y-82802630D02*
X82515114Y-82731201D01*
X82515114Y-82731201D02*
X83300828Y-82731201D01*
D11*
X108454819Y-104309523D02*
X109454819Y-103976190D01*
X109454819Y-103976190D02*
X108454819Y-103642857D01*
X108550057Y-103357142D02*
X108502438Y-103309523D01*
X108502438Y-103309523D02*
X108454819Y-103214285D01*
X108454819Y-103214285D02*
X108454819Y-102976190D01*
X108454819Y-102976190D02*
X108502438Y-102880952D01*
X108502438Y-102880952D02*
X108550057Y-102833333D01*
X108550057Y-102833333D02*
X108645295Y-102785714D01*
X108645295Y-102785714D02*
X108740533Y-102785714D01*
X108740533Y-102785714D02*
X108883390Y-102833333D01*
X108883390Y-102833333D02*
X109454819Y-103404761D01*
X109454819Y-103404761D02*
X109454819Y-102785714D01*
X109204819Y-72309523D02*
X110204819Y-71976190D01*
X110204819Y-71976190D02*
X109204819Y-71642857D01*
X110204819Y-70785714D02*
X110204819Y-71357142D01*
X110204819Y-71071428D02*
X109204819Y-71071428D01*
X109204819Y-71071428D02*
X109347676Y-71166666D01*
X109347676Y-71166666D02*
X109442914Y-71261904D01*
X109442914Y-71261904D02*
X109490533Y-71357142D01*
X106531905Y-58664819D02*
X106531905Y-57664819D01*
X106531905Y-57664819D02*
X106770000Y-57664819D01*
X106770000Y-57664819D02*
X106912857Y-57712438D01*
X106912857Y-57712438D02*
X107008095Y-57807676D01*
X107008095Y-57807676D02*
X107055714Y-57902914D01*
X107055714Y-57902914D02*
X107103333Y-58093390D01*
X107103333Y-58093390D02*
X107103333Y-58236247D01*
X107103333Y-58236247D02*
X107055714Y-58426723D01*
X107055714Y-58426723D02*
X107008095Y-58521961D01*
X107008095Y-58521961D02*
X106912857Y-58617200D01*
X106912857Y-58617200D02*
X106770000Y-58664819D01*
X106770000Y-58664819D02*
X106531905Y-58664819D01*
X107436667Y-57664819D02*
X108055714Y-57664819D01*
X108055714Y-57664819D02*
X107722381Y-58045771D01*
X107722381Y-58045771D02*
X107865238Y-58045771D01*
X107865238Y-58045771D02*
X107960476Y-58093390D01*
X107960476Y-58093390D02*
X108008095Y-58141009D01*
X108008095Y-58141009D02*
X108055714Y-58236247D01*
X108055714Y-58236247D02*
X108055714Y-58474342D01*
X108055714Y-58474342D02*
X108008095Y-58569580D01*
X108008095Y-58569580D02*
X107960476Y-58617200D01*
X107960476Y-58617200D02*
X107865238Y-58664819D01*
X107865238Y-58664819D02*
X107579524Y-58664819D01*
X107579524Y-58664819D02*
X107484286Y-58617200D01*
X107484286Y-58617200D02*
X107436667Y-58569580D01*
X85083333Y-65284819D02*
X84750000Y-64808628D01*
X84511905Y-65284819D02*
X84511905Y-64284819D01*
X84511905Y-64284819D02*
X84892857Y-64284819D01*
X84892857Y-64284819D02*
X84988095Y-64332438D01*
X84988095Y-64332438D02*
X85035714Y-64380057D01*
X85035714Y-64380057D02*
X85083333Y-64475295D01*
X85083333Y-64475295D02*
X85083333Y-64618152D01*
X85083333Y-64618152D02*
X85035714Y-64713390D01*
X85035714Y-64713390D02*
X84988095Y-64761009D01*
X84988095Y-64761009D02*
X84892857Y-64808628D01*
X84892857Y-64808628D02*
X84511905Y-64808628D01*
X85940476Y-64284819D02*
X85750000Y-64284819D01*
X85750000Y-64284819D02*
X85654762Y-64332438D01*
X85654762Y-64332438D02*
X85607143Y-64380057D01*
X85607143Y-64380057D02*
X85511905Y-64522914D01*
X85511905Y-64522914D02*
X85464286Y-64713390D01*
X85464286Y-64713390D02*
X85464286Y-65094342D01*
X85464286Y-65094342D02*
X85511905Y-65189580D01*
X85511905Y-65189580D02*
X85559524Y-65237200D01*
X85559524Y-65237200D02*
X85654762Y-65284819D01*
X85654762Y-65284819D02*
X85845238Y-65284819D01*
X85845238Y-65284819D02*
X85940476Y-65237200D01*
X85940476Y-65237200D02*
X85988095Y-65189580D01*
X85988095Y-65189580D02*
X86035714Y-65094342D01*
X86035714Y-65094342D02*
X86035714Y-64856247D01*
X86035714Y-64856247D02*
X85988095Y-64761009D01*
X85988095Y-64761009D02*
X85940476Y-64713390D01*
X85940476Y-64713390D02*
X85845238Y-64665771D01*
X85845238Y-64665771D02*
X85654762Y-64665771D01*
X85654762Y-64665771D02*
X85559524Y-64713390D01*
X85559524Y-64713390D02*
X85511905Y-64761009D01*
X85511905Y-64761009D02*
X85464286Y-64856247D01*
X101083333Y-52704819D02*
X100750000Y-52228628D01*
X100511905Y-52704819D02*
X100511905Y-51704819D01*
X100511905Y-51704819D02*
X100892857Y-51704819D01*
X100892857Y-51704819D02*
X100988095Y-51752438D01*
X100988095Y-51752438D02*
X101035714Y-51800057D01*
X101035714Y-51800057D02*
X101083333Y-51895295D01*
X101083333Y-51895295D02*
X101083333Y-52038152D01*
X101083333Y-52038152D02*
X101035714Y-52133390D01*
X101035714Y-52133390D02*
X100988095Y-52181009D01*
X100988095Y-52181009D02*
X100892857Y-52228628D01*
X100892857Y-52228628D02*
X100511905Y-52228628D01*
X101940476Y-52038152D02*
X101940476Y-52704819D01*
X101702381Y-51657200D02*
X101464286Y-52371485D01*
X101464286Y-52371485D02*
X102083333Y-52371485D01*
X88583333Y-35204819D02*
X88250000Y-34728628D01*
X88011905Y-35204819D02*
X88011905Y-34204819D01*
X88011905Y-34204819D02*
X88392857Y-34204819D01*
X88392857Y-34204819D02*
X88488095Y-34252438D01*
X88488095Y-34252438D02*
X88535714Y-34300057D01*
X88535714Y-34300057D02*
X88583333Y-34395295D01*
X88583333Y-34395295D02*
X88583333Y-34538152D01*
X88583333Y-34538152D02*
X88535714Y-34633390D01*
X88535714Y-34633390D02*
X88488095Y-34681009D01*
X88488095Y-34681009D02*
X88392857Y-34728628D01*
X88392857Y-34728628D02*
X88011905Y-34728628D01*
X89535714Y-35204819D02*
X88964286Y-35204819D01*
X89250000Y-35204819D02*
X89250000Y-34204819D01*
X89250000Y-34204819D02*
X89154762Y-34347676D01*
X89154762Y-34347676D02*
X89059524Y-34442914D01*
X89059524Y-34442914D02*
X88964286Y-34490533D01*
X101083333Y-44454819D02*
X100750000Y-43978628D01*
X100511905Y-44454819D02*
X100511905Y-43454819D01*
X100511905Y-43454819D02*
X100892857Y-43454819D01*
X100892857Y-43454819D02*
X100988095Y-43502438D01*
X100988095Y-43502438D02*
X101035714Y-43550057D01*
X101035714Y-43550057D02*
X101083333Y-43645295D01*
X101083333Y-43645295D02*
X101083333Y-43788152D01*
X101083333Y-43788152D02*
X101035714Y-43883390D01*
X101035714Y-43883390D02*
X100988095Y-43931009D01*
X100988095Y-43931009D02*
X100892857Y-43978628D01*
X100892857Y-43978628D02*
X100511905Y-43978628D01*
X101416667Y-43454819D02*
X102035714Y-43454819D01*
X102035714Y-43454819D02*
X101702381Y-43835771D01*
X101702381Y-43835771D02*
X101845238Y-43835771D01*
X101845238Y-43835771D02*
X101940476Y-43883390D01*
X101940476Y-43883390D02*
X101988095Y-43931009D01*
X101988095Y-43931009D02*
X102035714Y-44026247D01*
X102035714Y-44026247D02*
X102035714Y-44264342D01*
X102035714Y-44264342D02*
X101988095Y-44359580D01*
X101988095Y-44359580D02*
X101940476Y-44407200D01*
X101940476Y-44407200D02*
X101845238Y-44454819D01*
X101845238Y-44454819D02*
X101559524Y-44454819D01*
X101559524Y-44454819D02*
X101464286Y-44407200D01*
X101464286Y-44407200D02*
X101416667Y-44359580D01*
X98083333Y-49609580D02*
X98035714Y-49657200D01*
X98035714Y-49657200D02*
X97892857Y-49704819D01*
X97892857Y-49704819D02*
X97797619Y-49704819D01*
X97797619Y-49704819D02*
X97654762Y-49657200D01*
X97654762Y-49657200D02*
X97559524Y-49561961D01*
X97559524Y-49561961D02*
X97511905Y-49466723D01*
X97511905Y-49466723D02*
X97464286Y-49276247D01*
X97464286Y-49276247D02*
X97464286Y-49133390D01*
X97464286Y-49133390D02*
X97511905Y-48942914D01*
X97511905Y-48942914D02*
X97559524Y-48847676D01*
X97559524Y-48847676D02*
X97654762Y-48752438D01*
X97654762Y-48752438D02*
X97797619Y-48704819D01*
X97797619Y-48704819D02*
X97892857Y-48704819D01*
X97892857Y-48704819D02*
X98035714Y-48752438D01*
X98035714Y-48752438D02*
X98083333Y-48800057D01*
X99035714Y-49704819D02*
X98464286Y-49704819D01*
X98750000Y-49704819D02*
X98750000Y-48704819D01*
X98750000Y-48704819D02*
X98654762Y-48847676D01*
X98654762Y-48847676D02*
X98559524Y-48942914D01*
X98559524Y-48942914D02*
X98464286Y-48990533D01*
X100833333Y-36204819D02*
X100500000Y-35728628D01*
X100261905Y-36204819D02*
X100261905Y-35204819D01*
X100261905Y-35204819D02*
X100642857Y-35204819D01*
X100642857Y-35204819D02*
X100738095Y-35252438D01*
X100738095Y-35252438D02*
X100785714Y-35300057D01*
X100785714Y-35300057D02*
X100833333Y-35395295D01*
X100833333Y-35395295D02*
X100833333Y-35538152D01*
X100833333Y-35538152D02*
X100785714Y-35633390D01*
X100785714Y-35633390D02*
X100738095Y-35681009D01*
X100738095Y-35681009D02*
X100642857Y-35728628D01*
X100642857Y-35728628D02*
X100261905Y-35728628D01*
X101214286Y-35300057D02*
X101261905Y-35252438D01*
X101261905Y-35252438D02*
X101357143Y-35204819D01*
X101357143Y-35204819D02*
X101595238Y-35204819D01*
X101595238Y-35204819D02*
X101690476Y-35252438D01*
X101690476Y-35252438D02*
X101738095Y-35300057D01*
X101738095Y-35300057D02*
X101785714Y-35395295D01*
X101785714Y-35395295D02*
X101785714Y-35490533D01*
X101785714Y-35490533D02*
X101738095Y-35633390D01*
X101738095Y-35633390D02*
X101166667Y-36204819D01*
X101166667Y-36204819D02*
X101785714Y-36204819D01*
X106531905Y-50414819D02*
X106531905Y-49414819D01*
X106531905Y-49414819D02*
X106770000Y-49414819D01*
X106770000Y-49414819D02*
X106912857Y-49462438D01*
X106912857Y-49462438D02*
X107008095Y-49557676D01*
X107008095Y-49557676D02*
X107055714Y-49652914D01*
X107055714Y-49652914D02*
X107103333Y-49843390D01*
X107103333Y-49843390D02*
X107103333Y-49986247D01*
X107103333Y-49986247D02*
X107055714Y-50176723D01*
X107055714Y-50176723D02*
X107008095Y-50271961D01*
X107008095Y-50271961D02*
X106912857Y-50367200D01*
X106912857Y-50367200D02*
X106770000Y-50414819D01*
X106770000Y-50414819D02*
X106531905Y-50414819D01*
X107484286Y-49510057D02*
X107531905Y-49462438D01*
X107531905Y-49462438D02*
X107627143Y-49414819D01*
X107627143Y-49414819D02*
X107865238Y-49414819D01*
X107865238Y-49414819D02*
X107960476Y-49462438D01*
X107960476Y-49462438D02*
X108008095Y-49510057D01*
X108008095Y-49510057D02*
X108055714Y-49605295D01*
X108055714Y-49605295D02*
X108055714Y-49700533D01*
X108055714Y-49700533D02*
X108008095Y-49843390D01*
X108008095Y-49843390D02*
X107436667Y-50414819D01*
X107436667Y-50414819D02*
X108055714Y-50414819D01*
X96183095Y-35227319D02*
X96183095Y-36036842D01*
X96183095Y-36036842D02*
X96230714Y-36132080D01*
X96230714Y-36132080D02*
X96278333Y-36179700D01*
X96278333Y-36179700D02*
X96373571Y-36227319D01*
X96373571Y-36227319D02*
X96564047Y-36227319D01*
X96564047Y-36227319D02*
X96659285Y-36179700D01*
X96659285Y-36179700D02*
X96706904Y-36132080D01*
X96706904Y-36132080D02*
X96754523Y-36036842D01*
X96754523Y-36036842D02*
X96754523Y-35227319D01*
X97754523Y-36227319D02*
X97183095Y-36227319D01*
X97468809Y-36227319D02*
X97468809Y-35227319D01*
X97468809Y-35227319D02*
X97373571Y-35370176D01*
X97373571Y-35370176D02*
X97278333Y-35465414D01*
X97278333Y-35465414D02*
X97183095Y-35513033D01*
X106516905Y-42164819D02*
X106516905Y-41164819D01*
X106516905Y-41164819D02*
X106755000Y-41164819D01*
X106755000Y-41164819D02*
X106897857Y-41212438D01*
X106897857Y-41212438D02*
X106993095Y-41307676D01*
X106993095Y-41307676D02*
X107040714Y-41402914D01*
X107040714Y-41402914D02*
X107088333Y-41593390D01*
X107088333Y-41593390D02*
X107088333Y-41736247D01*
X107088333Y-41736247D02*
X107040714Y-41926723D01*
X107040714Y-41926723D02*
X106993095Y-42021961D01*
X106993095Y-42021961D02*
X106897857Y-42117200D01*
X106897857Y-42117200D02*
X106755000Y-42164819D01*
X106755000Y-42164819D02*
X106516905Y-42164819D01*
X108040714Y-42164819D02*
X107469286Y-42164819D01*
X107755000Y-42164819D02*
X107755000Y-41164819D01*
X107755000Y-41164819D02*
X107659762Y-41307676D01*
X107659762Y-41307676D02*
X107564524Y-41402914D01*
X107564524Y-41402914D02*
X107469286Y-41450533D01*
X82997200Y-48683332D02*
X83044819Y-48540475D01*
X83044819Y-48540475D02*
X83044819Y-48302380D01*
X83044819Y-48302380D02*
X82997200Y-48207142D01*
X82997200Y-48207142D02*
X82949580Y-48159523D01*
X82949580Y-48159523D02*
X82854342Y-48111904D01*
X82854342Y-48111904D02*
X82759104Y-48111904D01*
X82759104Y-48111904D02*
X82663866Y-48159523D01*
X82663866Y-48159523D02*
X82616247Y-48207142D01*
X82616247Y-48207142D02*
X82568628Y-48302380D01*
X82568628Y-48302380D02*
X82521009Y-48492856D01*
X82521009Y-48492856D02*
X82473390Y-48588094D01*
X82473390Y-48588094D02*
X82425771Y-48635713D01*
X82425771Y-48635713D02*
X82330533Y-48683332D01*
X82330533Y-48683332D02*
X82235295Y-48683332D01*
X82235295Y-48683332D02*
X82140057Y-48635713D01*
X82140057Y-48635713D02*
X82092438Y-48588094D01*
X82092438Y-48588094D02*
X82044819Y-48492856D01*
X82044819Y-48492856D02*
X82044819Y-48254761D01*
X82044819Y-48254761D02*
X82092438Y-48111904D01*
X82044819Y-47778570D02*
X83044819Y-47540475D01*
X83044819Y-47540475D02*
X82330533Y-47349999D01*
X82330533Y-47349999D02*
X83044819Y-47159523D01*
X83044819Y-47159523D02*
X82044819Y-46921428D01*
X83044819Y-46016666D02*
X83044819Y-46588094D01*
X83044819Y-46302380D02*
X82044819Y-46302380D01*
X82044819Y-46302380D02*
X82187676Y-46397618D01*
X82187676Y-46397618D02*
X82282914Y-46492856D01*
X82282914Y-46492856D02*
X82330533Y-46588094D01*
X98083333Y-52609580D02*
X98035714Y-52657200D01*
X98035714Y-52657200D02*
X97892857Y-52704819D01*
X97892857Y-52704819D02*
X97797619Y-52704819D01*
X97797619Y-52704819D02*
X97654762Y-52657200D01*
X97654762Y-52657200D02*
X97559524Y-52561961D01*
X97559524Y-52561961D02*
X97511905Y-52466723D01*
X97511905Y-52466723D02*
X97464286Y-52276247D01*
X97464286Y-52276247D02*
X97464286Y-52133390D01*
X97464286Y-52133390D02*
X97511905Y-51942914D01*
X97511905Y-51942914D02*
X97559524Y-51847676D01*
X97559524Y-51847676D02*
X97654762Y-51752438D01*
X97654762Y-51752438D02*
X97797619Y-51704819D01*
X97797619Y-51704819D02*
X97892857Y-51704819D01*
X97892857Y-51704819D02*
X98035714Y-51752438D01*
X98035714Y-51752438D02*
X98083333Y-51800057D01*
X98464286Y-51800057D02*
X98511905Y-51752438D01*
X98511905Y-51752438D02*
X98607143Y-51704819D01*
X98607143Y-51704819D02*
X98845238Y-51704819D01*
X98845238Y-51704819D02*
X98940476Y-51752438D01*
X98940476Y-51752438D02*
X98988095Y-51800057D01*
X98988095Y-51800057D02*
X99035714Y-51895295D01*
X99035714Y-51895295D02*
X99035714Y-51990533D01*
X99035714Y-51990533D02*
X98988095Y-52133390D01*
X98988095Y-52133390D02*
X98416667Y-52704819D01*
X98416667Y-52704819D02*
X99035714Y-52704819D01*
%TO.C,V2*%
D12*
X86400000Y-101050000D02*
X86400000Y-108950000D01*
X86400000Y-108950000D02*
X91200000Y-115750000D01*
X91200000Y-94200000D02*
X86400000Y-101050000D01*
X94500000Y-89450000D02*
X94500000Y-94250000D01*
X94500000Y-115750000D02*
X94500000Y-120550000D01*
X94500000Y-120550000D02*
X100000000Y-120550000D01*
X100000000Y-89450000D02*
X94500000Y-89450000D01*
X100000000Y-94250000D02*
X100000000Y-89450000D01*
X100000000Y-120550000D02*
X100000000Y-115750000D01*
X106750000Y-94450000D02*
X106750000Y-101150000D01*
X106750000Y-115550000D02*
X106750000Y-108850000D01*
X106751464Y-101153615D02*
G75*
G02*
X106750000Y-108850000I-9501464J-3846385D01*
G01*
%TO.C,V1*%
X86400000Y-68300000D02*
X86400000Y-76200000D01*
X86400000Y-76200000D02*
X91200000Y-83000000D01*
X91200000Y-61450000D02*
X86400000Y-68300000D01*
X94500000Y-56700000D02*
X94500000Y-61500000D01*
X94500000Y-83000000D02*
X94500000Y-87800000D01*
X94500000Y-87800000D02*
X100000000Y-87800000D01*
X100000000Y-56700000D02*
X94500000Y-56700000D01*
X100000000Y-61500000D02*
X100000000Y-56700000D01*
X100000000Y-87800000D02*
X100000000Y-83000000D01*
X106750000Y-61700000D02*
X106750000Y-68400000D01*
X106750000Y-82800000D02*
X106750000Y-76100000D01*
X106751464Y-68403615D02*
G75*
G02*
X106750000Y-76100000I-9501464J-3846385D01*
G01*
%TO.C,D3*%
X109830000Y-55795000D02*
X109830000Y-52705000D01*
X104280000Y-54250000D02*
G75*
G02*
X109830000Y-52705170I2990000J0D01*
G01*
X109830000Y-55794830D02*
G75*
G02*
X104280000Y-54250000I-2560000J1544830D01*
G01*
X109770000Y-54250000D02*
G75*
G02*
X104770000Y-54250000I-2500000J0D01*
G01*
X104770000Y-54250000D02*
G75*
G02*
X109770000Y-54250000I2500000J0D01*
G01*
%TO.C,R6*%
X85977064Y-62090000D02*
X84522936Y-62090000D01*
X85977064Y-63910000D02*
X84522936Y-63910000D01*
%TO.C,R4*%
X100310436Y-53340000D02*
X101764564Y-53340000D01*
X100310436Y-55160000D02*
X101764564Y-55160000D01*
%TO.C,R1*%
X92977064Y-34092500D02*
X91522936Y-34092500D01*
X92977064Y-35912500D02*
X91522936Y-35912500D01*
%TO.C,R3*%
X100347936Y-45090000D02*
X101802064Y-45090000D01*
X100347936Y-46910000D02*
X101802064Y-46910000D01*
%TO.C,C1*%
X90880000Y-49130000D02*
X96120000Y-49130000D01*
X90880000Y-49467000D02*
X90880000Y-49130000D01*
X90880000Y-51870000D02*
X90880000Y-51533000D01*
X96120000Y-49130000D02*
X96120000Y-49467000D01*
X96120000Y-51533000D02*
X96120000Y-51870000D01*
X96120000Y-51870000D02*
X90880000Y-51870000D01*
%TO.C,R2*%
X100347936Y-36840000D02*
X101802064Y-36840000D01*
X100347936Y-38660000D02*
X101802064Y-38660000D01*
%TO.C,D2*%
X109830000Y-47545000D02*
X109830000Y-44455000D01*
X104280000Y-46000000D02*
G75*
G02*
X109830000Y-44455170I2990000J0D01*
G01*
X109830000Y-47544830D02*
G75*
G02*
X104280000Y-46000000I-2560000J1544830D01*
G01*
X109770000Y-46000000D02*
G75*
G02*
X104770000Y-46000000I-2500000J0D01*
G01*
X104770000Y-46000000D02*
G75*
G02*
X109770000Y-46000000I2500000J0D01*
G01*
%TO.C,U1*%
X90355000Y-36862500D02*
X90355000Y-47142500D01*
X90355000Y-47142500D02*
X95655000Y-47142500D01*
X92005000Y-36862500D02*
X90355000Y-36862500D01*
X95655000Y-36862500D02*
X94005000Y-36862500D01*
X95655000Y-47142500D02*
X95655000Y-36862500D01*
X94005000Y-36862500D02*
G75*
G02*
X92005000Y-36862500I-1000000J0D01*
G01*
%TO.C,D1*%
X109815000Y-39295000D02*
X109815000Y-36205000D01*
X104265000Y-37750000D02*
G75*
G02*
X109815000Y-36205170I2990000J0D01*
G01*
X109815000Y-39294830D02*
G75*
G02*
X104265000Y-37750000I-2560000J1544830D01*
G01*
X109755000Y-37750000D02*
G75*
G02*
X104755000Y-37750000I-2500000J0D01*
G01*
X104755000Y-37750000D02*
G75*
G02*
X109755000Y-37750000I2500000J0D01*
G01*
%TO.C,SW1*%
X83400000Y-39880000D02*
X86100000Y-39880000D01*
X86100000Y-54820000D01*
X83400000Y-54820000D01*
X83400000Y-39880000D01*
%TO.C,C2*%
X90880000Y-52630000D02*
X96120000Y-52630000D01*
X90880000Y-52967000D02*
X90880000Y-52630000D01*
X90880000Y-55370000D02*
X90880000Y-55033000D01*
X96120000Y-52630000D02*
X96120000Y-52967000D01*
X96120000Y-55033000D02*
X96120000Y-55370000D01*
X96120000Y-55370000D02*
X90880000Y-55370000D01*
%TD*%
M02*
