%TF.GenerationSoftware,KiCad,Pcbnew,10.0.3*%
%TF.CreationDate,2026-08-05T18:05:35+02:00*%
%TF.ProjectId,door-alarm,646f6f72-2d61-46c6-9172-6d2e6b696361,rev?*%
%TF.SameCoordinates,Original*%
%TF.FileFunction,Copper,L1,Top*%
%TF.FilePolarity,Positive*%
%FSLAX46Y46*%
G04 Gerber Fmt 4.6, Leading zero omitted, Abs format (unit mm)*
G04 Created by KiCad (PCBNEW 10.0.3) date 2026-08-05 18:05:35*
%MOMM*%
%LPD*%
G01*
G04 APERTURE LIST*
G04 Aperture macros list*
%AMRoundRect*
0 Rectangle with rounded corners*
0 $1 Rounding radius*
0 $2 $3 $4 $5 $6 $7 $8 $9 X,Y pos of 4 corners*
0 Add a 4 corners polygon primitive as box body*
4,1,4,$2,$3,$4,$5,$6,$7,$8,$9,$2,$3,0*
0 Add four circle primitives for the rounded corners*
1,1,$1+$1,$2,$3*
1,1,$1+$1,$4,$5*
1,1,$1+$1,$6,$7*
1,1,$1+$1,$8,$9*
0 Add four rect primitives between the rounded corners*
20,1,$1+$1,$2,$3,$4,$5,0*
20,1,$1+$1,$4,$5,$6,$7,0*
20,1,$1+$1,$6,$7,$8,$9,0*
20,1,$1+$1,$8,$9,$2,$3,0*%
G04 Aperture macros list end*
%TA.AperFunction,SMDPad,CuDef*%
%ADD10R,5.100000X5.100000*%
%TD*%
%TA.AperFunction,SMDPad,CuDef*%
%ADD11C,17.800000*%
%TD*%
%TA.AperFunction,ComponentPad*%
%ADD12R,1.800000X1.800000*%
%TD*%
%TA.AperFunction,ComponentPad*%
%ADD13C,1.800000*%
%TD*%
%TA.AperFunction,SMDPad,CuDef*%
%ADD14RoundRect,0.250000X0.312500X0.625000X-0.312500X0.625000X-0.312500X-0.625000X0.312500X-0.625000X0*%
%TD*%
%TA.AperFunction,SMDPad,CuDef*%
%ADD15RoundRect,0.250000X-0.312500X-0.625000X0.312500X-0.625000X0.312500X0.625000X-0.312500X0.625000X0*%
%TD*%
%TA.AperFunction,ComponentPad*%
%ADD16C,1.600000*%
%TD*%
%TA.AperFunction,ComponentPad*%
%ADD17RoundRect,0.250000X-0.550000X-0.550000X0.550000X-0.550000X0.550000X0.550000X-0.550000X0.550000X0*%
%TD*%
%TA.AperFunction,SMDPad,CuDef*%
%ADD18RoundRect,0.250000X-0.550000X1.500000X-0.550000X-1.500000X0.550000X-1.500000X0.550000X1.500000X0*%
%TD*%
%TA.AperFunction,Conductor*%
%ADD19C,0.500000*%
%TD*%
%TA.AperFunction,Conductor*%
%ADD20C,0.200000*%
%TD*%
%TA.AperFunction,Conductor*%
%ADD21C,0.400000*%
%TD*%
G04 APERTURE END LIST*
D10*
%TO.P,V2,1*%
%TO.N,Net-(V1-Pad2)*%
X97250000Y-92200000D03*
X97250000Y-117800000D03*
D11*
%TO.P,V2,2*%
%TO.N,GND*%
X97250000Y-105000000D03*
%TD*%
D10*
%TO.P,V1,1*%
%TO.N,Net-(U1-VCC)*%
X97250000Y-59450000D03*
X97250000Y-85050000D03*
D11*
%TO.P,V1,2*%
%TO.N,Net-(V1-Pad2)*%
X97250000Y-72250000D03*
%TD*%
D12*
%TO.P,D3,1,K_1*%
%TO.N,GND*%
X108540000Y-54250000D03*
D13*
%TO.P,D3,2,A_2*%
%TO.N,Net-(D3-A)*%
X106000000Y-54250000D03*
%TD*%
D14*
%TO.P,R6,1*%
%TO.N,Net-(U1-VCC)*%
X86712500Y-63000000D03*
%TO.P,R6,2*%
%TO.N,Net-(U1-TRIG)*%
X83787500Y-63000000D03*
%TD*%
D15*
%TO.P,R4,1*%
%TO.N,Net-(U1-OUT)*%
X99575000Y-54250000D03*
%TO.P,R4,2*%
%TO.N,Net-(D3-A)*%
X102500000Y-54250000D03*
%TD*%
D14*
%TO.P,R1,1*%
%TO.N,Net-(U1-VCC)*%
X93712500Y-35002500D03*
%TO.P,R1,2*%
%TO.N,Net-(U1-DISCH)*%
X90787500Y-35002500D03*
%TD*%
D15*
%TO.P,R3,1*%
%TO.N,Net-(U1-OUT)*%
X99612500Y-46000000D03*
%TO.P,R3,2*%
%TO.N,Net-(D2-A)*%
X102537500Y-46000000D03*
%TD*%
D16*
%TO.P,C1,1*%
%TO.N,GND*%
X91000000Y-50500000D03*
%TO.P,C1,2*%
%TO.N,Net-(U1-CONT)*%
X96000000Y-50500000D03*
%TD*%
D15*
%TO.P,R2,1*%
%TO.N,Net-(U1-OUT)*%
X99612500Y-37750000D03*
%TO.P,R2,2*%
%TO.N,Net-(D1-A)*%
X102537500Y-37750000D03*
%TD*%
D12*
%TO.P,D2,1,K_1*%
%TO.N,GND*%
X108540000Y-46000000D03*
D13*
%TO.P,D2,2,A_2*%
%TO.N,Net-(D2-A)*%
X106000000Y-46000000D03*
%TD*%
D17*
%TO.P,U1,1,GND_1*%
%TO.N,GND*%
X89195000Y-38192500D03*
D16*
%TO.P,U1,2,TRIG_2*%
%TO.N,Net-(U1-TRIG)*%
X89195000Y-40732500D03*
%TO.P,U1,3,OUT_3*%
%TO.N,Net-(U1-OUT)*%
X89195000Y-43272500D03*
%TO.P,U1,4,~{RST}_4*%
%TO.N,Net-(U1-VCC)*%
X89195000Y-45812500D03*
%TO.P,U1,5,CONT_5*%
%TO.N,Net-(U1-CONT)*%
X96815000Y-45812500D03*
%TO.P,U1,6,THRES_6*%
%TO.N,Net-(U1-DISCH)*%
X96815000Y-43272500D03*
%TO.P,U1,7,DISCH_7*%
X96815000Y-40732500D03*
%TO.P,U1,8,VCC_8*%
%TO.N,Net-(U1-VCC)*%
X96815000Y-38192500D03*
%TD*%
D12*
%TO.P,D1,1,K_1*%
%TO.N,GND*%
X108525000Y-37750000D03*
D13*
%TO.P,D1,2,A_2*%
%TO.N,Net-(D1-A)*%
X105985000Y-37750000D03*
%TD*%
D18*
%TO.P,SW1,1,1_1*%
%TO.N,GND*%
X82720000Y-35950000D03*
%TO.P,SW1,2,2_2*%
%TO.N,Net-(U1-TRIG)*%
X84750000Y-58750000D03*
%TO.P,SW1,3*%
%TO.N,N/C*%
X85260000Y-35950000D03*
%TD*%
D16*
%TO.P,C2,1*%
%TO.N,Net-(U1-DISCH)*%
X91000000Y-54000000D03*
%TO.P,C2,2*%
%TO.N,GND*%
X96000000Y-54000000D03*
%TD*%
%TO.N,Net-(V1-Pad2)*%
D19*
X104250000Y-79250000D02*
X97250000Y-72250000D01*
X90800000Y-117800000D02*
X97250000Y-117800000D01*
X84500000Y-111500000D02*
X90800000Y-117800000D01*
X97250000Y-92200000D02*
X90800000Y-92200000D01*
X84500000Y-98500000D02*
X84500000Y-111500000D01*
X104250000Y-91250000D02*
X104250000Y-79250000D01*
X90800000Y-92200000D02*
X84500000Y-98500000D01*
X103300000Y-92200000D02*
X97250000Y-92200000D01*
X104250000Y-91250000D02*
X103300000Y-92200000D01*
%TO.N,GND*%
X108500000Y-59500000D02*
X108500000Y-93750000D01*
D20*
X82720000Y-37700000D02*
X82720000Y-35950000D01*
X92500000Y-50500000D02*
X96000000Y-54000000D01*
X108540000Y-59460000D02*
X108500000Y-59500000D01*
D19*
X108500000Y-93750000D02*
X97250000Y-105000000D01*
D20*
X83212500Y-38192500D02*
X82720000Y-37700000D01*
D21*
X108525000Y-45775000D02*
X108525000Y-37750000D01*
D20*
X104250000Y-59500000D02*
X108500000Y-59500000D01*
X91000000Y-50500000D02*
X92500000Y-50500000D01*
X96000000Y-54000000D02*
X97750000Y-55750000D01*
X108540000Y-46000000D02*
X108540000Y-45790000D01*
X89195000Y-38192500D02*
X89250000Y-38137500D01*
X108525000Y-37750000D02*
X108500000Y-37750000D01*
X108540000Y-45790000D02*
X108525000Y-45775000D01*
D21*
X108540000Y-54250000D02*
X108540000Y-59460000D01*
D20*
X100500000Y-55750000D02*
X104250000Y-59500000D01*
X89195000Y-38192500D02*
X83212500Y-38192500D01*
X97750000Y-55750000D02*
X100500000Y-55750000D01*
D21*
X108540000Y-46000000D02*
X108540000Y-54250000D01*
%TO.N,Net-(U1-VCC)*%
X90700000Y-59200000D02*
X89195000Y-57695000D01*
X97000000Y-59200000D02*
X90700000Y-59200000D01*
D19*
X84000000Y-65712500D02*
X86712500Y-63000000D01*
D20*
X97250000Y-85050000D02*
X97250000Y-85000000D01*
D21*
X89195000Y-57695000D02*
X89195000Y-45812500D01*
D20*
X96815000Y-38192500D02*
X96810000Y-38192500D01*
D19*
X84000000Y-81000000D02*
X84000000Y-65712500D01*
D20*
X96815000Y-38192500D02*
X93712500Y-35090000D01*
D21*
X90512500Y-59200000D02*
X86712500Y-63000000D01*
D20*
X96250000Y-59250000D02*
X95250000Y-59250000D01*
X96810000Y-38192500D02*
X96750000Y-38252500D01*
D19*
X97250000Y-85050000D02*
X88050000Y-85050000D01*
D20*
X97000000Y-59200000D02*
X96300000Y-59200000D01*
X93712500Y-35090000D02*
X93712500Y-35002500D01*
X96300000Y-59200000D02*
X96250000Y-59250000D01*
D19*
X88050000Y-85050000D02*
X84000000Y-81000000D01*
D21*
X90700000Y-59200000D02*
X90512500Y-59200000D01*
D20*
X89195000Y-45812500D02*
X89195000Y-45807500D01*
%TO.N,Net-(D3-A)*%
X102500000Y-54250000D02*
X106000000Y-54250000D01*
%TO.N,Net-(U1-TRIG)*%
X83787500Y-59712500D02*
X84750000Y-58750000D01*
X87750000Y-42177500D02*
X89195000Y-40732500D01*
X87750000Y-55750000D02*
X87750000Y-42177500D01*
X84750000Y-58750000D02*
X87750000Y-55750000D01*
X83787500Y-63000000D02*
X83787500Y-59712500D01*
%TO.N,Net-(U1-OUT)*%
X99575000Y-54000000D02*
X99612500Y-53962500D01*
D21*
X99612500Y-53962500D02*
X99612500Y-46250000D01*
X99612500Y-37750000D02*
X99612500Y-46000000D01*
X94172500Y-48250000D02*
X89195000Y-43272500D01*
X99612500Y-46250000D02*
X97612500Y-48250000D01*
X97612500Y-48250000D02*
X94172500Y-48250000D01*
D20*
X99575000Y-54250000D02*
X99575000Y-54000000D01*
%TO.N,Net-(U1-DISCH)*%
X96815000Y-40732500D02*
X94982500Y-40732500D01*
X90787500Y-36462500D02*
X90787500Y-35002500D01*
X96980000Y-40732500D02*
X97000000Y-40752500D01*
X90750000Y-36500000D02*
X90787500Y-36462500D01*
X94982500Y-40732500D02*
X90750000Y-36500000D01*
%TO.N,Net-(D2-A)*%
X102537500Y-46000000D02*
X106000000Y-46000000D01*
%TO.N,Net-(D1-A)*%
X102537500Y-37750000D02*
X105985000Y-37750000D01*
%TD*%
M02*
